<svg id="svg" version="1.1" xmlns="http://www.w3.org/2000/svg" xmlns:xlink="http://www.w3.org/1999/xlink" width="400" height="400" viewBox="0, 0, 400,400"><g id="svgg"><path id="path0" d="M12.890 189.100 C 12.939 286.065,13.074 360.630,13.190 354.800 L 13.400 344.200 15.200 344.145 C 16.190 344.114,18.440 344.046,20.200 343.993 C 21.960 343.939,23.589 343.747,23.820 343.566 C 24.051 343.384,25.761 343.182,27.620 343.118 C 29.479 343.053,31.135 342.820,31.300 342.600 C 31.488 342.349,31.749 342.424,32.000 342.800 C 32.266 343.200,32.500 343.258,32.700 342.975 C 32.865 342.742,33.450 342.551,34.000 342.551 C 34.550 342.551,35.149 342.742,35.330 342.975 C 35.558 343.267,35.724 343.244,35.864 342.900 C 35.975 342.625,36.727 342.400,37.533 342.400 C 38.340 342.400,40.183 342.153,41.629 341.850 C 43.074 341.548,44.919 341.353,45.729 341.417 C 46.538 341.481,47.200 341.406,47.200 341.251 C 47.200 341.096,48.314 340.924,49.675 340.871 C 51.037 340.817,52.352 340.606,52.598 340.402 C 52.844 340.198,53.845 339.979,54.822 339.917 C 55.800 339.854,56.735 339.622,56.900 339.401 C 57.089 339.149,57.348 339.222,57.600 339.600 C 57.863 339.995,58.103 340.056,58.300 339.781 C 58.625 339.327,63.512 338.271,65.300 338.268 C 65.905 338.267,66.400 338.136,66.400 337.976 C 66.400 337.816,66.805 337.682,67.300 337.678 C 67.795 337.675,69.353 337.402,70.763 337.073 C 72.172 336.743,73.567 336.566,73.863 336.679 C 74.158 336.793,74.400 336.686,74.400 336.443 C 74.400 336.199,74.904 336.000,75.520 336.000 C 76.136 336.000,76.828 335.812,77.059 335.581 C 77.289 335.351,78.225 335.133,79.139 335.096 C 80.052 335.060,80.800 334.927,80.800 334.800 C 80.800 334.673,81.511 334.542,82.381 334.507 C 83.250 334.472,84.394 334.160,84.924 333.813 C 85.454 333.466,86.183 333.295,86.544 333.434 C 86.909 333.574,87.200 333.489,87.200 333.243 C 87.200 332.999,87.729 332.800,88.376 332.800 C 89.023 332.800,89.664 332.620,89.800 332.400 C 89.936 332.180,90.472 332.000,90.990 332.000 C 91.509 332.000,92.025 331.775,92.136 331.500 C 92.289 331.122,92.452 331.147,92.800 331.600 C 93.148 332.053,93.311 332.078,93.464 331.700 C 93.575 331.425,94.181 331.200,94.810 331.200 C 95.438 331.200,96.064 331.020,96.200 330.800 C 96.336 330.580,96.872 330.400,97.390 330.400 C 97.909 330.400,98.425 330.175,98.536 329.900 C 98.693 329.514,98.828 329.527,99.127 329.955 C 99.447 330.413,99.677 330.360,100.433 329.655 C 100.938 329.185,101.752 328.800,102.242 328.800 C 102.732 328.800,103.225 328.575,103.336 328.300 C 103.489 327.922,103.652 327.947,104.000 328.400 C 104.348 328.853,104.511 328.878,104.664 328.500 C 104.775 328.225,105.268 328.000,105.758 328.000 C 106.248 328.000,107.062 327.615,107.567 327.145 C 108.267 326.493,108.559 326.411,108.800 326.800 C 109.041 327.189,109.333 327.107,110.033 326.455 C 110.538 325.985,111.352 325.600,111.842 325.600 C 112.332 325.600,112.825 325.375,112.936 325.100 C 113.093 324.714,113.228 324.727,113.527 325.155 C 113.847 325.613,114.077 325.560,114.833 324.855 C 115.338 324.385,116.152 324.000,116.642 324.000 C 117.132 324.000,117.625 323.775,117.736 323.500 C 117.893 323.113,118.025 323.123,118.323 323.548 C 118.630 323.986,118.970 323.844,120.023 322.838 C 121.022 321.883,121.427 321.703,121.701 322.090 C 121.987 322.495,122.103 322.497,122.264 322.100 C 122.375 321.825,122.868 321.600,123.358 321.600 C 123.848 321.600,124.633 321.242,125.103 320.804 C 125.573 320.367,126.202 320.103,126.502 320.218 C 126.802 320.333,127.472 320.058,127.991 319.608 C 128.554 319.119,129.230 318.883,129.668 319.021 C 130.070 319.149,130.400 319.062,130.400 318.827 C 130.400 318.592,130.816 318.400,131.325 318.400 C 131.833 318.400,132.662 318.015,133.167 317.545 C 133.889 316.872,134.155 316.803,134.412 317.220 C 134.659 317.619,135.049 317.418,136.000 316.400 C 136.956 315.376,137.340 315.179,137.590 315.584 C 137.845 315.996,138.163 315.874,138.994 315.042 C 139.720 314.316,140.317 314.047,140.834 314.211 C 141.262 314.347,141.600 314.266,141.600 314.027 C 141.600 313.792,142.016 313.600,142.525 313.600 C 143.033 313.600,143.833 313.242,144.303 312.804 C 144.773 312.367,145.414 312.107,145.727 312.227 C 146.040 312.348,146.404 312.166,146.536 311.823 C 146.667 311.480,147.051 311.200,147.387 311.200 C 147.724 311.200,148.000 311.020,148.000 310.800 C 148.000 310.580,148.416 310.400,148.925 310.400 C 149.433 310.400,150.233 310.042,150.703 309.604 C 151.173 309.167,151.817 308.908,152.135 309.030 C 152.452 309.152,153.172 308.792,153.734 308.230 C 154.296 307.668,154.991 307.298,155.278 307.408 C 155.565 307.518,156.285 307.158,156.878 306.608 C 157.471 306.058,158.216 305.708,158.534 305.830 C 158.852 305.952,159.573 305.591,160.138 305.026 C 160.702 304.462,161.489 304.000,161.886 304.000 C 162.284 304.000,163.327 303.373,164.204 302.606 C 165.082 301.839,166.036 301.297,166.325 301.403 C 166.614 301.508,167.418 301.063,168.112 300.414 C 168.957 299.625,169.468 299.386,169.657 299.692 C 169.842 299.992,170.374 299.684,171.200 298.800 C 172.180 297.751,172.536 297.573,172.800 298.000 C 173.065 298.428,173.402 298.269,174.330 297.275 C 174.985 296.574,175.721 296.000,175.966 296.000 C 176.620 296.000,177.978 295.151,179.340 293.890 C 180.135 293.155,180.634 292.932,180.818 293.230 C 180.995 293.516,181.874 292.940,183.229 291.647 C 184.530 290.406,185.466 289.783,185.630 290.048 C 185.795 290.315,186.648 289.766,187.832 288.631 C 188.932 287.577,190.005 286.870,190.321 286.991 C 190.626 287.108,191.381 286.663,191.998 286.002 C 192.616 285.341,193.388 284.800,193.714 284.800 C 194.040 284.800,194.418 284.395,194.553 283.900 C 194.743 283.207,194.881 283.125,195.152 283.545 C 195.421 283.964,196.000 283.605,197.637 282.001 C 198.811 280.852,199.837 280.112,199.919 280.356 C 200.139 281.018,200.800 280.892,200.800 280.187 C 200.800 279.851,201.115 279.457,201.500 279.312 C 201.885 279.167,202.677 278.543,203.260 277.925 C 203.844 277.306,204.547 276.800,204.823 276.800 C 205.460 276.800,207.208 275.464,209.985 272.854 C 211.496 271.433,212.390 270.870,212.885 271.027 C 213.368 271.180,213.600 271.047,213.600 270.614 C 213.600 270.263,213.915 269.855,214.300 269.708 C 214.685 269.561,215.843 268.577,216.874 267.521 C 217.905 266.464,219.009 265.600,219.327 265.600 C 219.646 265.600,220.006 265.222,220.126 264.760 C 220.247 264.298,220.521 264.028,220.735 264.160 C 221.210 264.454,222.761 263.118,228.721 257.285 C 231.926 254.148,233.429 252.924,233.645 253.274 C 233.878 253.650,234.013 253.603,234.178 253.089 C 234.300 252.710,234.500 252.090,234.622 251.711 C 234.808 251.132,234.900 251.114,235.200 251.600 C 235.500 252.086,235.592 252.068,235.778 251.489 C 236.381 249.617,236.497 249.411,236.680 249.900 C 237.006 250.773,237.600 250.439,237.600 249.382 C 237.600 248.635,237.786 248.396,238.300 248.482 C 238.771 248.561,239.043 248.299,239.130 247.683 C 239.230 246.981,239.441 246.823,240.030 247.010 C 240.657 247.209,240.800 247.058,240.800 246.200 C 240.800 245.328,240.938 245.190,241.600 245.400 C 242.262 245.610,242.400 245.472,242.400 244.600 C 242.400 243.751,242.546 243.592,243.150 243.784 C 243.685 243.954,243.962 243.789,244.113 243.211 C 244.230 242.765,244.612 242.400,244.963 242.400 C 245.380 242.400,245.600 242.046,245.600 241.373 C 245.600 240.528,245.742 240.391,246.400 240.600 C 247.064 240.811,247.200 240.672,247.200 239.784 C 247.200 238.986,247.356 238.774,247.815 238.950 C 248.171 239.087,248.508 238.936,248.615 238.593 C 249.151 236.874,249.300 236.617,249.480 237.100 C 249.800 237.958,250.400 237.647,250.400 236.624 C 250.400 235.541,251.026 234.911,251.319 235.698 C 251.503 236.190,251.618 235.988,252.222 234.111 C 252.412 233.518,252.501 233.504,252.859 234.011 C 253.206 234.502,253.239 234.486,253.057 233.917 C 252.900 233.428,254.422 231.625,258.396 227.590 C 261.937 223.994,263.874 221.738,263.734 221.373 C 263.600 221.022,263.764 220.800,264.157 220.800 C 264.511 220.800,264.800 220.544,264.800 220.231 C 264.800 219.917,266.066 218.380,267.613 216.814 C 269.161 215.248,270.317 213.790,270.184 213.574 C 270.050 213.357,270.175 213.230,270.461 213.290 C 270.747 213.351,271.041 213.012,271.113 212.537 C 271.186 212.062,272.316 210.550,273.623 209.176 C 274.930 207.802,276.000 206.369,276.000 205.993 C 276.000 205.616,276.990 204.277,278.200 203.018 C 279.410 201.758,280.397 200.519,280.394 200.264 C 280.390 200.002,280.219 200.062,280.000 200.400 C 279.781 200.738,279.610 200.798,279.606 200.536 C 279.603 200.281,280.590 199.042,281.800 197.782 C 283.010 196.523,284.000 195.178,284.000 194.795 C 284.000 194.411,284.720 193.355,285.600 192.448 C 286.480 191.541,287.200 190.477,287.200 190.084 C 287.200 189.690,287.920 188.572,288.800 187.600 C 289.680 186.628,290.400 185.545,290.400 185.194 C 290.400 184.843,291.030 183.869,291.800 183.028 C 292.570 182.187,293.197 181.297,293.194 181.050 C 293.191 180.802,293.013 180.870,292.800 181.200 C 292.587 181.530,292.409 181.598,292.406 181.350 C 292.403 181.103,293.030 180.213,293.800 179.372 C 294.570 178.531,295.200 177.554,295.200 177.200 C 295.200 176.846,295.830 175.869,296.600 175.028 C 297.370 174.187,297.997 173.297,297.994 173.050 C 297.991 172.802,297.813 172.870,297.600 173.200 C 297.387 173.530,297.209 173.598,297.206 173.350 C 297.203 173.103,297.830 172.213,298.600 171.372 C 299.370 170.531,300.000 169.553,300.000 169.197 C 300.000 168.842,300.360 168.164,300.800 167.692 C 301.240 167.220,301.600 166.493,301.600 166.076 C 301.600 165.659,302.136 164.757,302.792 164.071 C 303.448 163.385,303.889 162.577,303.773 162.274 C 303.657 161.972,304.111 161.138,304.781 160.420 C 305.452 159.703,305.997 158.909,305.994 158.658 C 305.991 158.406,305.813 158.470,305.600 158.800 C 305.361 159.170,305.210 159.215,305.206 158.918 C 305.203 158.653,305.648 157.988,306.196 157.440 C 306.744 156.893,307.133 156.209,307.062 155.922 C 306.990 155.635,307.007 155.536,307.100 155.702 C 307.393 156.229,308.000 155.586,308.000 154.748 C 308.000 154.305,308.270 153.673,308.600 153.343 C 308.930 153.013,309.197 152.531,309.194 152.271 C 309.190 151.995,309.027 152.048,308.800 152.400 C 308.587 152.730,308.409 152.794,308.406 152.542 C 308.403 152.291,308.948 151.497,309.619 150.780 C 310.289 150.062,310.741 149.223,310.623 148.915 C 310.505 148.607,310.856 147.907,311.404 147.360 C 311.952 146.812,312.397 146.147,312.394 145.882 C 312.390 145.585,312.239 145.630,312.000 146.000 C 311.773 146.352,311.610 146.405,311.606 146.129 C 311.603 145.869,311.870 145.387,312.200 145.057 C 312.530 144.727,312.800 144.118,312.800 143.704 C 312.800 143.290,313.160 142.564,313.600 142.092 C 314.040 141.620,314.404 140.911,314.409 140.517 C 314.414 140.123,314.770 139.350,315.200 138.800 C 315.630 138.250,315.986 137.472,315.991 137.071 C 315.996 136.671,316.270 136.073,316.600 135.743 C 316.930 135.413,317.197 134.931,317.194 134.671 C 317.190 134.395,317.027 134.448,316.800 134.800 C 316.561 135.170,316.410 135.215,316.406 134.918 C 316.403 134.653,316.848 133.988,317.396 133.440 C 317.944 132.893,318.293 132.188,318.173 131.874 C 318.053 131.560,318.234 131.023,318.577 130.680 C 318.920 130.337,319.200 129.677,319.200 129.212 C 319.200 128.747,319.560 127.980,320.000 127.508 C 320.440 127.036,320.800 126.233,320.800 125.725 C 320.800 125.216,320.992 124.800,321.227 124.800 C 321.462 124.800,321.551 124.476,321.425 124.079 C 321.299 123.682,321.461 123.007,321.785 122.579 C 322.109 122.151,322.380 121.472,322.387 121.071 C 322.394 120.671,322.670 120.073,323.000 119.743 C 323.330 119.413,323.597 118.931,323.594 118.671 C 323.590 118.395,323.427 118.448,323.200 118.800 C 322.973 119.152,322.810 119.205,322.806 118.929 C 322.803 118.669,323.070 118.187,323.400 117.857 C 323.730 117.527,324.006 116.929,324.013 116.529 C 324.020 116.128,324.291 115.449,324.615 115.021 C 324.939 114.593,325.101 113.918,324.975 113.521 C 324.849 113.124,324.938 112.800,325.173 112.800 C 325.408 112.800,325.606 112.395,325.613 111.900 C 325.620 111.405,325.891 110.649,326.215 110.221 C 326.539 109.793,326.701 109.118,326.575 108.721 C 326.449 108.324,326.531 108.000,326.758 108.000 C 327.226 108.000,328.215 104.960,328.091 103.900 C 328.046 103.515,328.187 103.200,328.405 103.200 C 328.622 103.200,328.806 102.795,328.813 102.300 C 328.820 101.805,329.090 101.051,329.413 100.624 C 329.736 100.196,329.997 99.656,329.994 99.424 C 329.991 99.191,329.813 99.270,329.600 99.600 C 329.373 99.952,329.210 100.005,329.206 99.729 C 329.203 99.469,329.470 98.987,329.800 98.657 C 330.130 98.327,330.400 97.594,330.400 97.029 C 330.400 96.463,330.592 96.000,330.827 96.000 C 331.062 96.000,331.151 95.676,331.025 95.279 C 330.899 94.882,331.061 94.207,331.385 93.779 C 331.709 93.351,331.980 92.312,331.987 91.471 C 331.994 90.631,332.276 89.667,332.614 89.329 C 332.966 88.977,333.125 88.393,332.987 87.958 C 332.853 87.537,332.936 87.200,333.173 87.200 C 333.408 87.200,333.600 86.660,333.600 86.000 C 333.600 85.340,333.761 84.800,333.958 84.800 C 334.154 84.800,334.330 84.395,334.349 83.900 C 334.418 82.018,334.611 80.856,334.900 80.567 C 335.065 80.402,335.200 79.660,335.200 78.919 C 335.200 78.178,335.486 77.136,335.834 76.604 C 336.183 76.071,336.374 75.481,336.258 75.293 C 336.059 74.971,336.598 72.108,337.105 70.800 C 337.233 70.470,337.396 69.795,337.469 69.300 C 338.348 63.278,338.518 62.400,338.809 62.400 C 338.978 62.400,339.105 61.995,339.093 61.500 C 339.081 61.005,339.207 60.240,339.373 59.800 C 339.625 59.133,339.596 59.100,339.200 59.600 C 338.804 60.100,338.775 60.067,339.027 59.400 C 339.193 58.960,339.319 58.195,339.307 57.700 C 339.295 57.205,339.446 56.800,339.642 56.800 C 339.839 56.800,340.000 55.900,340.000 54.800 C 340.000 53.700,340.161 52.800,340.358 52.800 C 340.554 52.800,340.705 52.395,340.693 51.900 C 340.681 51.405,340.807 50.640,340.973 50.200 C 341.225 49.533,341.196 49.500,340.800 50.000 C 340.403 50.501,340.372 50.469,340.612 49.800 C 340.938 48.891,341.057 48.099,341.439 44.300 C 341.588 42.815,341.831 41.600,341.979 41.600 C 342.127 41.600,342.282 40.385,342.323 38.900 C 342.468 33.655,342.534 32.800,342.798 32.800 C 342.944 32.800,343.105 30.966,343.155 28.725 C 343.205 26.483,343.364 24.458,343.508 24.225 C 343.653 23.991,343.831 21.910,343.904 19.600 C 343.978 17.290,344.074 14.950,344.119 14.400 L 344.200 13.400 354.800 13.190 C 360.630 13.074,286.065 12.939,189.100 12.890 L 12.800 12.800 12.890 189.100 M86.815 35.782 C 106.093 38.229,116.809 48.782,118.843 67.324 C 120.775 84.934,111.918 99.739,96.322 104.972 C 90.292 106.996,87.941 107.250,73.100 107.488 L 59.200 107.711 59.200 128.609 L 59.200 149.507 58.300 149.748 C 57.121 150.064,37.454 150.072,36.633 149.757 C 35.972 149.504,35.609 36.124,36.267 35.467 C 36.842 34.892,82.020 35.173,86.815 35.782 M226.131 35.619 C 260.225 38.554,276.850 58.549,275.892 95.467 C 275.078 126.850,260.887 144.179,232.000 149.064 C 228.083 149.726,180.858 150.403,178.573 149.829 L 177.600 149.585 177.600 92.659 C 177.600 61.350,177.720 35.613,177.867 35.467 C 178.303 35.030,220.849 35.164,226.131 35.619 M59.200 71.391 L 59.200 88.843 71.300 88.722 C 84.580 88.588,85.881 88.377,89.682 85.743 C 97.630 80.236,97.636 62.591,89.692 57.126 C 85.622 54.326,85.099 54.238,71.500 54.081 L 59.200 53.939 59.200 71.391 M201.008 55.238 C 200.890 55.547,200.840 72.540,200.897 93.000 L 201.000 130.200 210.800 130.312 C 241.501 130.663,252.021 121.008,251.993 92.504 C 251.972 70.616,244.875 59.727,228.200 55.993 C 223.399 54.918,201.364 54.306,201.008 55.238 M108.308 202.950 C 108.383 209.363,108.279 212.264,107.959 212.650 C 107.580 213.106,103.298 213.200,82.946 213.200 L 58.390 213.200 58.495 227.700 L 58.600 242.200 80.915 242.400 C 100.167 242.573,103.282 242.682,103.609 243.200 C 104.432 244.503,104.086 261.126,103.226 261.586 C 102.720 261.857,94.832 262.000,80.384 262.000 L 58.316 262.000 58.458 285.100 L 58.600 308.200 47.000 308.200 L 35.400 308.200 35.297 251.400 C 35.241 220.160,35.280 194.374,35.385 194.098 C 35.537 193.699,43.050 193.617,71.888 193.698 L 108.200 193.800 108.308 202.950 " stroke="none" fill="#fc1717" fill-rule="evenodd"></path><path id="path1" d="M36.667 36.267 C 36.520 36.413,36.400 61.880,36.400 92.859 L 36.400 149.185 37.300 149.405 C 37.795 149.526,42.700 149.574,48.200 149.513 L 58.200 149.400 58.304 128.307 L 58.407 107.213 59.304 107.018 C 59.797 106.911,66.500 106.754,74.200 106.669 C 85.387 106.546,88.783 106.382,91.105 105.851 C 108.688 101.832,118.400 89.575,118.400 71.400 C 118.400 52.401,107.613 39.712,88.800 36.580 C 85.217 35.984,37.238 35.695,36.667 36.267 M178.267 36.267 C 177.609 36.924,177.972 149.104,178.633 149.357 C 179.687 149.762,216.623 149.629,223.438 149.196 C 251.823 147.392,268.234 134.881,273.540 111.000 C 275.047 104.215,275.313 101.459,275.313 92.600 C 275.313 62.598,262.713 43.939,238.592 38.222 C 234.283 37.200,234.071 37.161,229.600 36.566 C 225.180 35.977,178.826 35.707,178.267 36.267 M84.859 54.125 C 92.896 56.771,96.082 61.670,96.094 71.400 C 96.111 85.963,90.399 89.785,69.000 89.526 L 58.600 89.400 58.496 71.626 C 58.414 57.683,58.500 53.778,58.896 53.506 C 59.806 52.881,82.741 53.427,84.859 54.125 M226.046 54.979 C 244.314 57.974,252.781 69.890,252.797 92.625 C 252.811 114.022,245.359 125.721,229.200 129.666 C 225.637 130.536,224.614 130.594,212.800 130.597 L 200.200 130.600 200.097 93.000 C 200.040 72.320,200.079 55.175,200.184 54.900 C 200.468 54.155,221.409 54.219,226.046 54.979 M36.185 194.500 C 36.080 194.775,36.041 220.380,36.097 251.400 L 36.200 307.800 46.200 307.913 C 51.700 307.974,56.605 307.926,57.100 307.805 L 58.000 307.585 58.000 284.596 L 58.000 261.607 80.500 261.503 L 103.000 261.400 103.000 252.400 L 103.000 243.400 80.600 243.200 L 58.200 243.000 58.200 227.800 L 58.200 212.600 83.000 212.400 L 107.800 212.200 107.913 204.000 C 107.976 199.490,107.927 195.395,107.806 194.900 L 107.585 194.000 71.980 194.000 C 43.864 194.000,36.335 194.105,36.185 194.500 M385.304 307.300 C 385.067 307.795,384.745 308.560,384.590 309.000 C 384.411 309.506,384.238 309.615,384.119 309.298 C 383.857 308.595,383.200 309.092,383.200 309.993 C 383.200 310.403,381.944 312.009,380.410 313.562 C 378.422 315.574,377.685 316.589,377.848 317.093 C 378.035 317.675,378.002 317.696,377.659 317.211 C 377.220 316.590,377.252 316.548,376.615 318.593 C 376.508 318.936,376.171 319.087,375.815 318.950 C 375.382 318.784,375.200 318.963,375.200 319.554 C 375.200 320.083,373.719 321.885,371.200 324.420 C 369.000 326.633,367.200 328.684,367.200 328.976 C 367.200 329.268,366.840 329.601,366.400 329.716 C 365.931 329.839,365.600 330.262,365.600 330.739 C 365.600 331.187,365.420 331.664,365.200 331.800 C 364.980 331.936,364.800 331.846,364.800 331.600 C 364.800 331.354,364.620 331.264,364.400 331.400 C 364.180 331.536,364.000 331.984,364.000 332.396 C 364.000 333.687,331.953 365.465,331.151 364.969 C 330.928 364.832,330.652 365.081,330.536 365.523 C 330.421 365.965,329.983 366.416,329.563 366.526 C 329.143 366.635,328.800 367.012,328.800 367.363 C 328.800 367.713,328.523 368.000,328.185 368.000 C 327.846 368.000,325.965 369.618,324.005 371.595 C 321.701 373.919,320.232 375.111,319.852 374.965 C 319.455 374.812,319.221 375.041,319.132 375.669 C 319.043 376.298,318.773 376.562,318.300 376.482 C 317.829 376.403,317.600 376.625,317.600 377.159 C 317.600 378.084,316.945 378.634,316.704 377.912 C 316.611 377.633,315.340 378.636,313.769 380.229 C 312.245 381.774,310.683 383.159,310.299 383.307 C 309.915 383.454,309.600 383.780,309.600 384.030 C 309.600 384.282,309.316 384.377,308.963 384.241 C 308.538 384.078,308.256 384.264,308.116 384.798 C 308.001 385.239,307.645 385.600,307.325 385.600 C 307.005 385.600,306.473 385.870,306.143 386.200 C 305.610 386.733,310.057 386.800,346.171 386.800 L 386.800 386.800 386.800 347.233 C 386.800 305.135,386.767 304.247,385.304 307.300 M35.379 351.712 C 35.270 351.993,35.231 355.728,35.291 360.012 L 35.400 367.800 71.900 367.902 L 108.400 368.004 108.400 359.602 L 108.400 351.200 71.987 351.200 C 42.779 351.200,35.536 351.301,35.379 351.712 " stroke="none" fill="#fce5e5" fill-rule="evenodd"></path><path id="path2" d="M82.705 35.883 C 83.202 35.979,83.922 35.975,84.305 35.875 C 84.687 35.775,84.280 35.696,83.400 35.701 C 82.520 35.705,82.207 35.787,82.705 35.883 M222.305 35.883 C 222.802 35.979,223.522 35.975,223.905 35.875 C 224.287 35.775,223.880 35.696,223.000 35.701 C 222.120 35.705,221.807 35.787,222.305 35.883 M261.200 50.200 C 261.946 50.970,262.647 51.600,262.757 51.600 C 262.867 51.600,262.346 50.970,261.600 50.200 C 260.854 49.430,260.153 48.800,260.043 48.800 C 259.933 48.800,260.454 49.430,261.200 50.200 M200.661 54.700 C 200.559 54.865,203.473 54.954,207.137 54.897 C 219.439 54.708,220.671 54.565,210.724 54.482 C 205.292 54.437,200.763 54.535,200.661 54.700 M118.493 68.800 C 118.493 69.570,118.575 69.885,118.676 69.500 C 118.776 69.115,118.776 68.485,118.676 68.100 C 118.575 67.715,118.493 68.030,118.493 68.800 M385.600 85.967 C 385.600 86.168,385.823 86.408,386.096 86.499 C 386.452 86.617,386.391 86.866,385.883 87.374 C 385.471 87.786,385.269 88.389,385.403 88.808 C 385.529 89.207,385.445 89.648,385.216 89.790 C 384.987 89.931,384.800 90.487,384.800 91.024 C 384.800 91.561,384.639 92.000,384.442 92.000 C 384.246 92.000,384.066 92.450,384.042 93.000 C 384.019 93.550,383.981 94.450,383.958 95.000 C 383.934 95.550,383.754 96.000,383.558 96.000 C 383.361 96.000,383.200 96.540,383.200 97.200 C 383.200 97.860,383.039 98.400,382.842 98.400 C 382.646 98.400,382.466 98.850,382.442 99.400 C 382.419 99.950,382.381 100.850,382.358 101.400 C 382.334 101.950,382.154 102.400,381.958 102.400 C 381.761 102.400,381.600 102.940,381.600 103.600 C 381.600 104.260,381.439 104.800,381.242 104.800 C 381.046 104.800,380.866 105.250,380.842 105.800 C 380.819 106.350,380.781 107.250,380.758 107.800 C 380.734 108.350,380.561 108.800,380.373 108.800 C 379.958 108.800,378.995 111.923,379.109 112.900 C 379.154 113.285,379.013 113.600,378.795 113.600 C 378.578 113.600,378.400 114.140,378.400 114.800 C 378.400 115.460,378.208 116.000,377.973 116.000 C 377.736 116.000,377.653 116.337,377.787 116.758 C 377.925 117.193,377.766 117.777,377.414 118.129 C 377.076 118.467,376.800 119.206,376.800 119.771 C 376.800 120.337,376.608 120.800,376.373 120.800 C 376.138 120.800,376.049 121.124,376.175 121.521 C 376.301 121.918,376.139 122.593,375.815 123.021 C 375.491 123.449,375.220 124.205,375.213 124.700 C 375.206 125.195,375.008 125.600,374.773 125.600 C 374.536 125.600,374.453 125.937,374.587 126.358 C 374.725 126.793,374.566 127.377,374.214 127.729 C 373.876 128.067,373.600 128.806,373.600 129.371 C 373.600 129.937,373.408 130.400,373.173 130.400 C 372.936 130.400,372.853 130.737,372.987 131.158 C 373.125 131.593,372.966 132.177,372.614 132.529 C 372.276 132.867,372.000 133.529,372.000 134.000 C 372.000 134.471,371.724 135.133,371.386 135.471 C 371.034 135.823,370.875 136.407,371.013 136.842 C 371.147 137.263,371.064 137.600,370.827 137.600 C 370.592 137.600,370.394 138.005,370.387 138.500 C 370.380 138.995,370.110 139.749,369.787 140.176 C 369.464 140.604,369.200 141.251,369.200 141.615 C 369.200 141.980,368.840 142.693,368.400 143.200 C 367.960 143.707,367.603 144.320,367.606 144.561 C 367.609 144.803,367.787 144.730,368.000 144.400 C 368.227 144.048,368.390 143.995,368.394 144.271 C 368.397 144.531,368.130 145.013,367.800 145.343 C 367.470 145.673,367.200 146.232,367.200 146.586 C 367.200 146.939,366.914 147.664,366.566 148.196 C 366.217 148.729,366.053 149.362,366.202 149.604 C 366.351 149.845,366.094 150.371,365.631 150.773 C 365.167 151.175,364.887 151.761,365.008 152.075 C 365.128 152.390,364.861 153.069,364.413 153.585 C 363.966 154.100,363.600 154.820,363.600 155.185 C 363.600 155.549,363.336 156.196,363.013 156.624 C 362.690 157.051,362.420 157.723,362.413 158.117 C 362.406 158.511,362.040 159.220,361.600 159.692 C 361.160 160.164,360.800 160.967,360.800 161.475 C 360.800 161.984,360.620 162.400,360.400 162.400 C 360.180 162.400,360.000 162.858,360.000 163.418 C 360.000 163.978,359.550 164.886,359.000 165.436 C 358.450 165.986,358.003 166.653,358.006 166.918 C 358.010 167.215,358.161 167.170,358.400 166.800 C 358.627 166.448,358.790 166.395,358.794 166.671 C 358.797 166.931,358.530 167.413,358.200 167.743 C 357.870 168.073,357.600 168.682,357.600 169.096 C 357.600 169.510,357.240 170.236,356.800 170.708 C 356.360 171.180,356.000 171.900,356.000 172.308 C 356.000 172.716,355.640 173.436,355.200 173.908 C 354.760 174.380,354.400 175.100,354.400 175.508 C 354.400 175.916,354.040 176.636,353.600 177.108 C 353.160 177.580,352.800 178.384,352.800 178.895 C 352.800 179.406,352.440 180.083,352.000 180.400 C 351.560 180.717,351.200 181.352,351.200 181.810 C 351.200 182.269,350.570 183.331,349.800 184.172 C 349.030 185.013,348.403 185.903,348.406 186.150 C 348.409 186.398,348.587 186.330,348.800 186.000 C 349.039 185.630,349.190 185.585,349.194 185.882 C 349.197 186.147,348.750 186.814,348.200 187.364 C 347.650 187.914,347.200 188.782,347.200 189.294 C 347.200 189.805,346.840 190.483,346.401 190.799 C 345.893 191.166,345.673 191.671,345.797 192.188 C 345.905 192.634,345.889 192.774,345.762 192.498 C 345.439 191.793,344.800 192.287,344.800 193.240 C 344.800 193.677,344.440 194.420,344.000 194.892 C 343.560 195.364,343.200 196.042,343.200 196.397 C 343.200 196.753,342.570 197.731,341.800 198.572 C 341.030 199.413,340.403 200.303,340.406 200.550 C 340.409 200.798,340.587 200.730,340.800 200.400 C 341.013 200.070,341.191 200.002,341.194 200.250 C 341.197 200.497,340.570 201.387,339.800 202.228 C 339.030 203.069,338.400 204.054,338.400 204.419 C 338.400 204.783,337.864 205.643,337.208 206.329 C 336.552 207.015,336.073 207.806,336.142 208.088 C 336.212 208.370,336.193 208.464,336.100 208.298 C 335.809 207.774,335.200 208.412,335.200 209.240 C 335.200 209.677,334.840 210.420,334.400 210.892 C 333.960 211.364,333.600 212.039,333.600 212.391 C 333.600 212.744,332.880 213.828,332.000 214.800 C 331.120 215.772,330.400 216.890,330.400 217.284 C 330.400 217.677,329.680 218.741,328.800 219.648 C 327.920 220.555,327.200 221.597,327.200 221.964 C 327.200 222.332,326.489 223.418,325.620 224.378 C 324.750 225.339,323.981 226.502,323.910 226.962 C 323.839 227.423,323.547 227.751,323.261 227.690 C 322.975 227.630,322.858 227.770,323.001 228.001 C 323.144 228.233,322.707 228.939,322.030 229.572 C 321.354 230.204,320.800 231.088,320.800 231.537 C 320.800 231.986,320.620 232.464,320.400 232.600 C 320.180 232.736,320.000 232.646,320.000 232.400 C 320.000 232.154,319.820 232.064,319.600 232.200 C 319.380 232.336,319.200 232.778,319.200 233.183 C 319.200 233.588,318.304 234.834,317.210 235.952 C 316.115 237.070,315.275 238.213,315.344 238.492 C 315.413 238.772,315.393 238.864,315.300 238.698 C 315.012 238.180,314.400 238.808,314.400 239.621 C 314.400 240.047,313.320 241.492,312.000 242.832 C 310.680 244.173,309.600 245.600,309.600 246.004 C 309.600 246.408,308.344 248.009,306.810 249.562 C 304.822 251.574,304.085 252.589,304.248 253.093 C 304.392 253.540,304.350 253.629,304.135 253.334 C 303.686 252.719,302.326 253.663,302.527 254.449 C 302.605 254.752,302.593 254.864,302.500 254.698 C 302.177 254.117,301.600 254.855,301.600 255.851 C 301.600 256.672,301.455 256.808,300.800 256.600 C 300.177 256.402,300.000 256.528,300.000 257.170 C 300.000 257.679,298.470 259.534,296.000 262.020 C 293.772 264.262,292.000 266.379,292.000 266.799 C 292.000 267.213,291.820 267.664,291.600 267.800 C 291.380 267.936,291.200 267.846,291.200 267.600 C 291.200 267.354,291.020 267.264,290.800 267.400 C 290.580 267.536,290.400 267.963,290.400 268.349 C 290.400 268.735,289.860 269.568,289.200 270.200 C 288.540 270.832,288.000 271.125,288.000 270.851 C 288.000 270.577,287.820 270.464,287.600 270.600 C 287.380 270.736,287.200 271.205,287.200 271.642 C 287.200 272.746,269.153 290.562,268.717 289.889 C 268.497 289.550,268.324 289.676,268.153 290.300 C 268.018 290.795,267.641 291.200,267.316 291.200 C 266.991 291.200,266.631 291.560,266.516 292.000 C 266.401 292.440,266.052 292.800,265.741 292.800 C 265.429 292.800,263.208 294.778,260.806 297.194 C 257.819 300.199,256.241 301.514,255.818 301.352 C 255.385 301.185,255.200 301.359,255.200 301.934 C 255.200 302.384,255.020 302.864,254.800 303.000 C 254.580 303.136,254.400 303.055,254.400 302.820 C 254.400 302.543,254.118 302.569,253.595 302.896 C 253.153 303.172,252.881 303.633,252.991 303.920 C 253.101 304.207,253.024 304.338,252.819 304.212 C 252.614 304.085,251.143 305.248,249.549 306.795 C 247.485 308.799,246.558 309.463,246.326 309.104 C 246.093 308.744,245.930 308.857,245.753 309.500 C 245.618 309.995,245.246 310.400,244.927 310.400 C 244.609 310.400,243.472 311.299,242.402 312.398 C 241.111 313.723,240.244 314.315,239.828 314.155 C 239.383 313.985,239.200 314.154,239.200 314.734 C 239.200 315.647,238.551 316.254,238.320 315.559 C 238.238 315.313,237.262 315.987,236.151 317.056 C 234.075 319.055,232.735 320.000,231.979 320.000 C 231.742 320.000,230.672 320.899,229.602 321.998 C 228.389 323.243,227.434 323.911,227.066 323.770 C 226.708 323.633,225.785 324.222,224.712 325.272 C 222.877 327.068,221.528 328.000,220.766 328.000 C 220.521 328.000,219.816 328.541,219.198 329.202 C 218.581 329.863,217.826 330.308,217.521 330.191 C 217.205 330.070,216.132 330.777,215.032 331.831 C 213.548 333.253,213.018 333.558,212.749 333.142 C 212.482 332.727,212.342 332.811,212.153 333.500 C 212.018 333.995,211.640 334.400,211.314 334.400 C 210.988 334.400,210.185 334.974,209.530 335.675 C 208.697 336.566,208.249 336.804,208.040 336.464 C 207.826 336.118,207.397 336.297,206.540 337.090 C 205.178 338.351,203.820 339.200,203.166 339.200 C 202.921 339.200,202.185 339.774,201.530 340.475 C 200.697 341.366,200.249 341.604,200.040 341.264 C 199.826 340.918,199.397 341.097,198.540 341.890 C 197.076 343.245,195.811 344.000,195.005 344.000 C 194.672 344.000,194.400 344.180,194.400 344.400 C 194.400 344.620,194.124 344.800,193.787 344.800 C 193.451 344.800,193.067 345.080,192.936 345.423 C 192.804 345.766,192.440 345.947,192.126 345.827 C 191.813 345.707,191.071 346.058,190.478 346.608 C 189.885 347.158,189.158 347.516,188.862 347.402 C 188.567 347.289,187.788 347.771,187.132 348.473 C 186.202 349.468,185.865 349.628,185.600 349.200 C 185.336 348.773,184.980 348.951,184.000 350.000 C 183.020 351.049,182.664 351.227,182.400 350.800 C 182.135 350.372,181.798 350.532,180.868 351.527 C 180.154 352.292,179.437 352.712,179.082 352.576 C 178.741 352.445,178.027 352.810,177.404 353.433 C 176.658 354.179,176.229 354.371,176.030 354.048 C 175.832 353.728,175.322 353.979,174.423 354.838 C 173.546 355.677,173.012 355.943,172.823 355.638 C 172.635 355.332,172.101 355.599,171.223 356.438 C 170.230 357.388,169.827 357.568,169.584 357.173 C 169.342 356.783,168.941 356.993,168.000 358.000 C 167.049 359.018,166.659 359.219,166.412 358.820 C 166.155 358.403,165.889 358.472,165.167 359.145 C 164.662 359.615,163.916 360.000,163.508 360.000 C 163.100 360.000,162.380 360.360,161.908 360.800 C 161.436 361.240,160.633 361.600,160.125 361.600 C 159.616 361.600,159.199 361.735,159.197 361.900 C 159.193 362.259,157.256 363.200,156.520 363.200 C 156.234 363.200,156.000 363.392,156.000 363.627 C 156.000 363.862,155.676 363.951,155.279 363.825 C 154.882 363.699,154.207 363.861,153.779 364.185 C 153.351 364.509,152.595 364.780,152.100 364.787 C 151.605 364.794,151.200 364.980,151.200 365.200 C 151.200 365.420,150.784 365.600,150.275 365.600 C 149.767 365.600,148.938 365.985,148.433 366.455 C 147.789 367.055,147.429 367.171,147.228 366.845 C 147.033 366.530,146.515 366.785,145.623 367.638 C 144.662 368.557,144.223 368.760,143.996 368.393 C 143.761 368.014,143.459 368.100,142.767 368.745 C 142.262 369.215,141.433 369.600,140.925 369.600 C 140.416 369.600,140.000 369.792,140.000 370.027 C 140.000 370.262,139.676 370.351,139.279 370.225 C 138.882 370.099,138.207 370.261,137.779 370.585 C 137.351 370.909,136.595 371.180,136.100 371.187 C 135.605 371.194,135.200 371.392,135.200 371.627 C 135.200 371.862,134.870 371.949,134.468 371.821 C 134.032 371.683,133.357 371.917,132.800 372.400 C 132.243 372.883,131.568 373.117,131.132 372.979 C 130.730 372.851,130.400 372.938,130.400 373.173 C 130.400 373.408,129.995 373.606,129.500 373.613 C 129.005 373.620,128.249 373.891,127.821 374.215 C 127.393 374.539,126.718 374.701,126.321 374.575 C 125.915 374.446,125.600 374.545,125.600 374.800 C 125.600 375.058,125.284 375.154,124.868 375.021 C 124.432 374.883,123.757 375.117,123.200 375.600 C 122.643 376.083,121.968 376.317,121.532 376.179 C 121.130 376.051,120.800 376.138,120.800 376.373 C 120.800 376.608,120.395 376.806,119.900 376.813 C 119.405 376.820,118.649 377.091,118.221 377.415 C 117.793 377.739,117.118 377.901,116.721 377.775 C 116.315 377.646,116.000 377.745,116.000 378.000 C 116.000 378.255,115.685 378.354,115.279 378.225 C 114.882 378.099,114.207 378.261,113.779 378.585 C 113.351 378.909,112.595 379.180,112.100 379.187 C 111.605 379.194,111.200 379.399,111.200 379.643 C 111.200 379.886,110.951 379.990,110.647 379.873 C 109.957 379.609,106.716 380.697,106.304 381.331 C 106.081 381.675,105.885 381.640,105.570 381.200 C 105.245 380.748,105.089 380.724,104.936 381.100 C 104.825 381.375,104.309 381.600,103.790 381.600 C 103.272 381.600,102.736 381.780,102.600 382.000 C 102.464 382.220,101.838 382.400,101.210 382.400 C 100.581 382.400,99.975 382.625,99.864 382.900 C 99.711 383.278,99.548 383.253,99.200 382.800 C 98.852 382.347,98.689 382.322,98.536 382.700 C 98.425 382.975,97.819 383.200,97.190 383.200 C 96.562 383.200,95.936 383.380,95.800 383.600 C 95.664 383.820,95.128 384.000,94.610 384.000 C 94.091 384.000,93.575 384.225,93.464 384.500 C 93.311 384.876,93.155 384.852,92.830 384.400 C 92.536 383.990,92.305 383.938,92.100 384.235 C 91.785 384.692,88.037 385.655,86.500 385.674 C 86.005 385.680,85.600 385.858,85.600 386.069 C 85.600 386.281,85.285 386.356,84.900 386.236 C 84.515 386.116,83.930 386.191,83.600 386.403 C 83.214 386.650,102.232 386.790,136.876 386.794 C 172.369 386.798,190.837 386.664,191.000 386.400 C 191.136 386.180,191.552 385.996,191.924 385.991 C 192.296 385.986,193.050 385.630,193.600 385.200 C 194.150 384.770,194.974 384.414,195.430 384.409 C 195.887 384.404,196.683 383.950,197.200 383.400 C 197.717 382.850,198.434 382.400,198.793 382.400 C 199.153 382.400,199.796 382.136,200.224 381.813 C 200.651 381.490,201.315 381.220,201.700 381.213 C 202.085 381.206,202.400 381.029,202.400 380.820 C 202.400 380.612,203.536 379.899,204.923 379.237 C 206.311 378.574,207.782 377.662,208.191 377.210 C 208.609 376.748,209.222 376.480,209.594 376.598 C 209.983 376.722,210.640 376.396,211.197 375.804 C 211.715 375.252,212.443 374.800,212.813 374.800 C 213.184 374.800,214.320 374.067,215.337 373.172 C 216.354 372.277,217.384 371.666,217.626 371.816 C 217.867 371.965,218.561 371.612,219.167 371.031 C 219.781 370.444,220.529 370.075,220.854 370.199 C 221.183 370.326,221.853 369.982,222.389 369.412 C 222.912 368.855,223.649 368.400,224.027 368.400 C 224.405 368.400,224.818 368.130,224.945 367.800 C 225.071 367.470,225.419 367.200,225.718 367.200 C 226.016 367.200,226.683 366.750,227.200 366.200 C 227.717 365.650,228.443 365.200,228.813 365.200 C 229.184 365.200,230.306 364.479,231.307 363.598 C 232.308 362.718,233.377 362.093,233.682 362.210 C 233.988 362.328,234.680 361.953,235.219 361.377 C 235.759 360.802,236.920 360.000,237.800 359.595 C 238.680 359.190,240.112 358.125,240.982 357.229 C 241.954 356.227,242.809 355.676,243.198 355.799 C 243.592 355.925,244.502 355.319,245.600 354.200 C 246.571 353.210,247.664 352.400,248.027 352.400 C 248.390 352.400,249.520 351.667,250.537 350.772 C 251.554 349.877,252.570 349.258,252.794 349.396 C 253.018 349.535,253.375 349.191,253.588 348.632 C 253.811 348.046,254.195 347.700,254.496 347.816 C 254.783 347.926,255.816 347.202,256.792 346.208 C 257.768 345.214,258.883 344.400,259.269 344.400 C 259.655 344.400,261.125 343.320,262.536 342.000 C 263.947 340.680,265.373 339.600,265.704 339.600 C 266.036 339.600,266.401 339.239,266.516 338.798 C 266.656 338.264,266.938 338.078,267.363 338.241 C 267.785 338.403,268.000 338.266,268.000 337.833 C 268.000 337.474,268.405 337.021,268.900 336.827 C 269.395 336.633,270.602 335.647,271.583 334.637 C 272.564 333.627,273.580 332.800,273.840 332.800 C 274.101 332.800,274.422 332.519,274.554 332.175 C 274.686 331.831,274.970 331.658,275.184 331.790 C 275.398 331.922,277.632 330.036,280.148 327.599 C 282.664 325.162,284.800 323.310,284.896 323.484 C 284.991 323.658,285.019 323.588,284.958 323.329 C 284.810 322.700,285.856 321.864,286.383 322.190 C 286.613 322.332,286.975 321.991,287.188 321.432 C 287.446 320.753,287.778 320.493,288.187 320.650 C 288.583 320.802,288.800 320.655,288.800 320.233 C 288.800 319.874,289.205 319.419,289.700 319.221 C 290.986 318.709,319.105 290.362,319.282 289.400 C 319.373 288.905,319.690 288.645,320.115 288.718 C 320.569 288.796,320.800 288.570,320.800 288.048 C 320.800 286.867,322.821 284.601,323.276 285.272 C 323.551 285.678,323.606 285.651,323.517 285.155 C 323.449 284.780,325.202 282.633,327.700 280.033 C 330.065 277.572,332.000 275.278,332.000 274.936 C 332.000 274.594,333.278 272.996,334.841 271.385 C 336.646 269.523,337.571 268.277,337.379 267.966 C 337.185 267.652,337.243 267.579,337.539 267.762 C 337.822 267.937,338.160 267.632,338.410 266.974 C 338.635 266.383,339.974 264.651,341.387 263.125 C 342.800 261.599,343.873 260.133,343.771 259.868 C 343.669 259.603,344.579 258.406,345.793 257.207 C 347.007 256.008,348.000 254.702,348.000 254.304 C 348.000 253.906,349.080 252.419,350.400 251.000 C 351.720 249.581,352.800 248.157,352.800 247.834 C 352.800 247.512,353.520 246.417,354.400 245.400 C 355.280 244.383,356.000 243.303,356.000 243.000 C 356.000 242.697,356.720 241.617,357.600 240.600 C 358.480 239.583,359.200 238.488,359.200 238.167 C 359.200 237.845,359.920 236.801,360.800 235.846 C 361.680 234.892,362.400 233.759,362.400 233.330 C 362.400 232.901,362.961 232.021,363.646 231.375 C 364.331 230.729,365.216 229.455,365.613 228.544 C 366.009 227.633,366.529 226.768,366.767 226.620 C 367.005 226.473,367.200 226.014,367.200 225.601 C 367.200 225.187,367.920 224.017,368.800 223.000 C 369.680 221.983,370.400 220.830,370.400 220.438 C 370.400 220.045,370.760 219.398,371.200 219.000 C 371.640 218.602,372.000 217.955,372.000 217.562 C 372.000 217.170,372.720 216.017,373.600 215.000 C 374.480 213.983,375.200 212.876,375.200 212.539 C 375.200 212.202,375.560 211.469,376.000 210.909 C 376.440 210.350,376.800 209.584,376.800 209.208 C 376.800 208.832,377.160 208.198,377.600 207.800 C 378.040 207.402,378.400 206.768,378.400 206.392 C 378.400 206.016,378.760 205.250,379.200 204.691 C 379.640 204.131,380.000 203.393,380.000 203.051 C 380.000 202.708,380.554 201.797,381.231 201.026 C 381.908 200.255,382.344 199.433,382.200 199.200 C 382.056 198.967,382.492 198.145,383.169 197.374 C 383.846 196.603,384.397 195.753,384.394 195.486 C 384.390 195.181,384.244 195.223,384.000 195.600 C 383.787 195.930,383.609 196.006,383.606 195.770 C 383.603 195.533,384.050 194.917,384.600 194.400 C 385.150 193.883,385.600 193.023,385.600 192.487 C 385.600 191.787,385.768 191.579,386.200 191.745 C 386.817 191.981,387.170 87.829,386.557 86.233 C 386.297 85.554,385.600 85.360,385.600 85.967 M275.724 89.400 C 275.726 90.720,275.801 91.212,275.890 90.493 C 275.979 89.774,275.977 88.694,275.886 88.093 C 275.795 87.492,275.722 88.080,275.724 89.400 M275.724 95.800 C 275.726 97.120,275.801 97.612,275.890 96.893 C 275.979 96.174,275.977 95.094,275.886 94.493 C 275.795 93.892,275.722 94.480,275.724 95.800 M205.300 130.698 C 207.665 130.769,211.535 130.769,213.900 130.698 C 216.265 130.628,214.330 130.570,209.600 130.570 C 204.870 130.570,202.935 130.628,205.300 130.698 M386.993 242.200 C 386.993 267.280,387.041 277.599,387.100 265.131 C 387.159 252.663,387.159 232.143,387.100 219.531 C 387.041 206.919,386.993 217.120,386.993 242.200 M58.662 242.900 C 58.764 243.065,68.823 243.200,81.016 243.200 L 103.185 243.200 103.304 252.200 L 103.423 261.200 103.412 252.100 L 103.400 243.000 80.938 242.800 C 68.584 242.690,58.560 242.735,58.662 242.900 M35.200 306.376 C 35.200 307.023,35.342 307.641,35.516 307.748 C 35.690 307.856,35.761 307.327,35.673 306.572 C 35.476 304.891,35.200 304.777,35.200 306.376 M51.700 350.700 C 60.885 350.760,75.915 350.760,85.100 350.700 C 94.285 350.640,86.770 350.591,68.400 350.591 C 50.030 350.591,42.515 350.640,51.700 350.700 M34.970 359.600 C 34.970 364.330,35.028 366.265,35.098 363.900 C 35.169 361.535,35.169 357.665,35.098 355.300 C 35.028 352.935,34.970 354.870,34.970 359.600 M108.892 359.700 L 108.800 368.400 71.900 368.467 L 35.000 368.534 71.600 368.841 C 100.549 369.084,108.306 369.045,108.708 368.652 C 109.095 368.273,109.189 366.112,109.100 359.578 L 108.983 351.000 108.892 359.700 M217.731 387.100 C 230.233 387.159,250.573 387.159,262.931 387.100 C 275.289 387.041,265.060 386.993,240.200 386.993 C 215.340 386.993,205.229 387.041,217.731 387.100 " stroke="none" fill="#fc7474" fill-rule="evenodd"></path><path id="path3" d="M36.448 36.143 C 35.671 37.078,36.020 149.284,36.800 149.497 C 37.246 149.619,37.271 149.570,36.899 149.306 C 36.500 149.024,36.418 137.396,36.499 92.576 L 36.600 36.200 59.400 35.995 L 82.200 35.790 59.549 35.695 C 40.880 35.617,36.819 35.695,36.448 36.143 M178.048 36.143 C 177.271 37.078,177.620 149.284,178.400 149.497 C 178.846 149.619,178.871 149.570,178.499 149.306 C 178.100 149.024,178.018 137.396,178.099 92.576 L 178.200 36.200 200.000 35.995 L 221.800 35.790 200.149 35.695 C 182.322 35.617,178.418 35.696,178.048 36.143 M227.300 36.276 C 227.685 36.376,228.315 36.376,228.700 36.276 C 229.085 36.175,228.770 36.093,228.000 36.093 C 227.230 36.093,226.915 36.175,227.300 36.276 M234.000 37.200 C 235.368 37.638,236.419 37.638,235.400 37.200 C 234.960 37.011,234.240 36.862,233.800 36.868 C 233.157 36.877,233.196 36.943,234.000 37.200 M106.000 43.325 C 106.000 43.394,106.585 43.979,107.300 44.625 L 108.600 45.800 107.425 44.500 C 106.330 43.288,106.000 43.016,106.000 43.325 M253.210 44.126 C 253.809 44.774,256.495 46.397,256.018 45.822 C 255.710 45.451,254.905 44.866,254.229 44.523 C 253.553 44.179,253.095 44.001,253.210 44.126 M109.600 46.925 C 109.600 46.994,110.185 47.579,110.900 48.225 L 112.200 49.400 111.025 48.100 C 109.930 46.888,109.600 46.616,109.600 46.925 M261.200 50.600 C 262.617 52.030,263.867 53.200,263.977 53.200 C 264.087 53.200,263.017 52.030,261.600 50.600 C 260.183 49.170,258.933 48.000,258.823 48.000 C 258.713 48.000,259.783 49.170,261.200 50.600 M64.076 53.499 C 66.868 53.567,71.548 53.568,74.476 53.499 C 77.404 53.431,75.120 53.375,69.400 53.374 C 63.680 53.374,61.284 53.430,64.076 53.499 M58.594 71.500 L 58.600 89.400 69.519 89.506 C 75.525 89.565,80.973 89.475,81.626 89.306 C 82.279 89.138,77.412 89.057,70.811 89.127 L 58.808 89.253 58.698 71.427 L 58.588 53.600 58.594 71.500 M83.000 54.000 C 83.440 54.189,84.070 54.344,84.400 54.344 C 84.778 54.344,84.704 54.217,84.200 54.000 C 83.760 53.811,83.130 53.656,82.800 53.656 C 82.422 53.656,82.496 53.783,83.000 54.000 M200.184 54.900 C 199.614 56.396,200.216 130.538,200.800 130.697 C 201.248 130.820,201.273 130.771,200.896 130.504 C 200.495 130.221,200.413 122.375,200.496 92.274 C 200.553 71.443,200.549 54.400,200.487 54.400 C 200.426 54.400,200.289 54.625,200.184 54.900 M220.433 54.551 C 220.525 54.634,221.860 54.802,223.400 54.926 C 225.552 55.098,225.830 55.069,224.600 54.798 C 222.983 54.442,220.126 54.273,220.433 54.551 M228.200 55.600 C 228.640 55.789,229.270 55.944,229.600 55.944 C 229.978 55.944,229.904 55.817,229.400 55.600 C 228.960 55.411,228.330 55.256,228.000 55.256 C 227.622 55.256,227.696 55.383,228.200 55.600 M267.800 59.200 C 268.141 59.860,268.511 60.400,268.621 60.400 C 268.731 60.400,268.541 59.860,268.200 59.200 C 267.859 58.540,267.489 58.000,267.379 58.000 C 267.269 58.000,267.459 58.540,267.800 59.200 M239.446 60.072 C 241.219 61.411,241.562 61.517,240.216 60.311 C 239.547 59.712,238.841 59.217,238.646 59.211 C 238.451 59.205,238.811 59.592,239.446 60.072 M243.400 63.200 C 244.259 64.080,245.052 64.800,245.162 64.800 C 245.272 64.800,244.659 64.080,243.800 63.200 C 242.941 62.320,242.148 61.600,242.038 61.600 C 241.928 61.600,242.541 62.320,243.400 63.200 M117.862 64.200 C 117.996 65.080,118.172 65.875,118.253 65.967 C 118.556 66.310,118.329 64.168,117.981 63.400 C 117.729 62.842,117.693 63.085,117.862 64.200 M95.256 64.800 C 95.256 65.130,95.411 65.760,95.600 66.200 C 95.817 66.704,95.944 66.778,95.944 66.400 C 95.944 66.070,95.789 65.440,95.600 65.000 C 95.383 64.496,95.256 64.422,95.256 64.800 M96.109 71.600 C 96.109 72.590,96.187 72.995,96.282 72.500 C 96.378 72.005,96.378 71.195,96.282 70.700 C 96.187 70.205,96.109 70.610,96.109 71.600 M118.509 71.600 C 118.509 72.590,118.587 72.995,118.682 72.500 C 118.778 72.005,118.778 71.195,118.682 70.700 C 118.587 70.205,118.509 70.610,118.509 71.600 M95.429 77.029 C 95.281 77.615,95.238 78.172,95.332 78.266 C 95.427 78.360,95.624 77.958,95.771 77.371 C 95.919 76.785,95.962 76.228,95.868 76.134 C 95.773 76.040,95.576 76.442,95.429 77.029 M118.049 77.400 C 118.016 77.840,117.896 78.650,117.783 79.200 L 117.577 80.200 118.006 79.219 C 118.242 78.679,118.361 77.869,118.272 77.419 C 118.113 76.621,118.107 76.621,118.049 77.400 M251.268 79.200 C 251.288 80.239,251.918 81.946,251.932 81.000 C 251.938 80.560,251.789 79.840,251.600 79.400 C 251.389 78.910,251.261 78.832,251.268 79.200 M91.394 84.712 C 90.731 85.310,89.741 86.123,89.194 86.517 C 88.237 87.208,88.249 87.208,89.518 86.521 C 90.243 86.128,91.311 85.310,91.893 84.703 C 93.243 83.294,92.960 83.299,91.394 84.712 M252.093 84.800 C 252.093 85.570,252.175 85.885,252.276 85.500 C 252.376 85.115,252.376 84.485,252.276 84.100 C 252.175 83.715,252.093 84.030,252.093 84.800 M275.328 87.600 C 275.328 89.030,275.401 89.615,275.489 88.900 C 275.578 88.185,275.578 87.015,275.489 86.300 C 275.401 85.585,275.328 86.170,275.328 87.600 M252.531 89.000 C 252.533 90.540,252.605 91.121,252.692 90.291 C 252.779 89.461,252.777 88.201,252.689 87.491 C 252.600 86.781,252.529 87.460,252.531 89.000 M252.531 96.200 C 252.533 97.740,252.605 98.321,252.692 97.491 C 252.779 96.661,252.777 95.401,252.689 94.691 C 252.600 93.981,252.529 94.660,252.531 96.200 M275.328 97.600 C 275.328 99.030,275.401 99.615,275.489 98.900 C 275.578 98.185,275.578 97.015,275.489 96.300 C 275.401 95.585,275.328 96.170,275.328 97.600 M106.793 98.513 C 106.239 99.001,105.249 99.815,104.593 100.322 C 103.937 100.829,103.760 101.070,104.200 100.857 C 105.033 100.454,108.350 97.636,108.000 97.629 C 107.890 97.627,107.347 98.025,106.793 98.513 M252.101 100.600 C 252.105 101.480,252.187 101.793,252.283 101.295 C 252.379 100.798,252.375 100.078,252.275 99.695 C 252.175 99.313,252.096 99.720,252.101 100.600 M274.640 104.840 C 274.493 105.757,274.452 106.585,274.547 106.680 C 274.642 106.776,274.846 106.110,275.000 105.200 C 275.154 104.290,275.196 103.462,275.093 103.360 C 274.990 103.257,274.787 103.923,274.640 104.840 M251.422 105.022 C 251.272 105.825,251.228 106.562,251.326 106.660 C 251.424 106.757,251.627 106.181,251.778 105.378 C 251.928 104.575,251.972 103.838,251.874 103.740 C 251.776 103.643,251.573 104.219,251.422 105.022 M90.000 106.000 C 89.196 106.257,89.157 106.323,89.800 106.332 C 90.240 106.338,90.960 106.189,91.400 106.000 C 92.419 105.562,91.368 105.562,90.000 106.000 M65.500 107.099 C 69.075 107.166,74.925 107.166,78.500 107.099 C 82.075 107.033,79.150 106.979,72.000 106.979 C 64.850 106.979,61.925 107.033,65.500 107.099 M58.400 128.280 C 58.290 139.984,58.337 149.424,58.504 149.257 C 58.671 149.089,58.761 139.513,58.703 127.976 L 58.600 107.000 58.400 128.280 M250.629 108.629 C 250.481 109.215,250.438 109.772,250.532 109.866 C 250.627 109.960,250.824 109.558,250.971 108.971 C 251.119 108.385,251.162 107.828,251.068 107.734 C 250.973 107.640,250.776 108.042,250.629 108.629 M273.850 109.650 C 273.517 111.317,273.840 111.640,274.200 110.000 C 274.352 109.309,274.393 108.659,274.291 108.558 C 274.189 108.456,273.991 108.947,273.850 109.650 M273.029 113.029 C 272.881 113.615,272.838 114.172,272.932 114.266 C 273.027 114.360,273.224 113.958,273.371 113.371 C 273.519 112.785,273.562 112.228,273.468 112.134 C 273.373 112.040,273.176 112.442,273.029 113.029 M243.200 122.200 C 242.228 123.190,241.523 124.000,241.633 124.000 C 241.743 124.000,242.628 123.190,243.600 122.200 C 244.572 121.210,245.277 120.400,245.167 120.400 C 245.057 120.400,244.172 121.210,243.200 122.200 M239.681 124.972 C 237.823 126.285,237.562 126.661,239.131 125.762 C 239.863 125.343,240.650 124.775,240.880 124.500 C 241.471 123.793,241.193 123.902,239.681 124.972 M263.397 132.300 C 262.321 133.565,261.856 134.240,262.364 133.800 C 263.329 132.964,265.783 130.000,265.510 130.000 C 265.423 130.000,264.472 131.035,263.397 132.300 M219.100 130.689 C 219.815 130.778,220.985 130.778,221.700 130.689 C 222.415 130.601,221.830 130.528,220.400 130.528 C 218.970 130.528,218.385 130.601,219.100 130.689 M258.400 137.270 C 256.868 138.688,256.686 138.939,257.800 138.097 C 259.284 136.976,261.134 135.178,260.762 135.217 C 260.673 135.227,259.610 136.151,258.400 137.270 M232.000 148.400 C 231.208 148.654,231.167 148.720,231.800 148.720 C 232.240 148.720,233.050 148.576,233.600 148.400 C 234.392 148.146,234.433 148.080,233.800 148.080 C 233.360 148.080,232.550 148.224,232.000 148.400 M226.705 149.083 C 227.202 149.179,227.922 149.175,228.305 149.075 C 228.687 148.975,228.280 148.896,227.400 148.901 C 226.520 148.905,226.207 148.987,226.705 149.083 M221.111 149.493 C 222.051 149.578,223.491 149.577,224.311 149.491 C 225.130 149.405,224.360 149.336,222.600 149.337 C 220.840 149.339,220.170 149.409,221.111 149.493 M385.600 192.497 C 385.600 193.027,385.150 193.883,384.600 194.400 C 384.050 194.917,383.603 195.533,383.606 195.770 C 383.609 196.006,383.787 195.930,384.000 195.600 C 384.244 195.223,384.390 195.181,384.394 195.486 C 384.397 195.753,383.846 196.603,383.169 197.374 C 382.492 198.145,382.056 198.967,382.200 199.200 C 382.344 199.433,381.908 200.255,381.231 201.026 C 380.554 201.797,380.000 202.708,380.000 203.051 C 380.000 203.393,379.640 204.131,379.200 204.691 C 378.760 205.250,378.400 206.016,378.400 206.392 C 378.400 206.768,378.040 207.402,377.600 207.800 C 377.160 208.198,376.800 208.832,376.800 209.208 C 376.800 209.584,376.440 210.350,376.000 210.909 C 375.560 211.469,375.200 212.202,375.200 212.539 C 375.200 212.876,374.480 213.983,373.600 215.000 C 372.720 216.017,372.000 217.170,372.000 217.562 C 372.000 217.955,371.640 218.602,371.200 219.000 C 370.760 219.398,370.400 220.045,370.400 220.438 C 370.400 220.830,369.680 221.983,368.800 223.000 C 367.920 224.017,367.200 225.187,367.200 225.601 C 367.200 226.014,367.005 226.473,366.767 226.620 C 366.529 226.768,366.009 227.633,365.613 228.544 C 365.216 229.455,364.331 230.729,363.646 231.375 C 362.961 232.021,362.400 232.901,362.400 233.330 C 362.400 233.759,361.680 234.892,360.800 235.846 C 359.920 236.801,359.200 237.845,359.200 238.167 C 359.200 238.488,358.480 239.583,357.600 240.600 C 356.720 241.617,356.000 242.697,356.000 243.000 C 356.000 243.303,355.280 244.383,354.400 245.400 C 353.520 246.417,352.800 247.512,352.800 247.834 C 352.800 248.157,351.720 249.581,350.400 251.000 C 349.080 252.419,348.000 253.906,348.000 254.304 C 348.000 254.702,347.007 256.008,345.793 257.207 C 344.579 258.406,343.669 259.603,343.771 259.868 C 343.873 260.133,342.800 261.599,341.387 263.125 C 339.974 264.651,338.635 266.383,338.410 266.974 C 338.160 267.632,337.822 267.937,337.539 267.762 C 337.243 267.579,337.185 267.652,337.379 267.966 C 337.571 268.277,336.646 269.523,334.841 271.385 C 333.278 272.996,332.000 274.594,332.000 274.936 C 332.000 275.278,330.065 277.572,327.700 280.033 C 325.202 282.633,323.449 284.780,323.517 285.155 C 323.606 285.651,323.551 285.678,323.276 285.272 C 322.821 284.601,320.800 286.867,320.800 288.048 C 320.800 288.570,320.569 288.796,320.115 288.718 C 319.690 288.645,319.373 288.905,319.282 289.400 C 319.105 290.362,290.986 318.709,289.700 319.221 C 289.205 319.419,288.800 319.874,288.800 320.233 C 288.800 320.655,288.583 320.802,288.187 320.650 C 287.778 320.493,287.446 320.753,287.188 321.432 C 286.975 321.991,286.613 322.332,286.383 322.190 C 285.856 321.864,284.810 322.700,284.958 323.329 C 285.019 323.588,284.991 323.658,284.896 323.484 C 284.800 323.310,282.664 325.162,280.148 327.599 C 277.632 330.036,275.398 331.922,275.184 331.790 C 274.970 331.658,274.686 331.831,274.554 332.175 C 274.422 332.519,274.101 332.800,273.840 332.800 C 273.580 332.800,272.564 333.627,271.583 334.637 C 270.602 335.647,269.395 336.633,268.900 336.827 C 268.405 337.021,268.000 337.474,268.000 337.833 C 268.000 338.266,267.785 338.403,267.363 338.241 C 266.938 338.078,266.656 338.264,266.516 338.798 C 266.401 339.239,266.036 339.600,265.704 339.600 C 265.373 339.600,263.947 340.680,262.536 342.000 C 261.125 343.320,259.655 344.400,259.269 344.400 C 258.883 344.400,257.768 345.214,256.792 346.208 C 255.816 347.202,254.783 347.926,254.496 347.816 C 254.195 347.700,253.811 348.046,253.588 348.632 C 253.375 349.191,253.018 349.535,252.794 349.396 C 252.570 349.258,251.554 349.877,250.537 350.772 C 249.520 351.667,248.390 352.400,248.027 352.400 C 247.664 352.400,246.571 353.210,245.600 354.200 C 244.502 355.319,243.592 355.925,243.198 355.799 C 242.809 355.676,241.954 356.227,240.982 357.229 C 240.112 358.125,238.680 359.190,237.800 359.595 C 236.920 360.000,235.759 360.802,235.219 361.377 C 234.680 361.953,233.988 362.328,233.682 362.210 C 233.377 362.093,232.308 362.718,231.307 363.598 C 230.306 364.479,229.184 365.200,228.813 365.200 C 228.443 365.200,227.717 365.650,227.200 366.200 C 226.683 366.750,226.016 367.200,225.718 367.200 C 225.419 367.200,225.071 367.470,224.945 367.800 C 224.818 368.130,224.405 368.400,224.027 368.400 C 223.649 368.400,222.912 368.855,222.389 369.412 C 221.853 369.982,221.183 370.326,220.854 370.199 C 220.529 370.075,219.781 370.444,219.167 371.031 C 218.561 371.612,217.867 371.965,217.626 371.816 C 217.384 371.666,216.354 372.277,215.337 373.172 C 214.320 374.067,213.184 374.800,212.813 374.800 C 212.443 374.800,211.715 375.252,211.197 375.804 C 210.640 376.396,209.983 376.722,209.594 376.598 C 209.222 376.480,208.609 376.748,208.191 377.210 C 207.782 377.662,206.311 378.574,204.923 379.237 C 203.536 379.899,202.400 380.612,202.400 380.820 C 202.400 381.029,202.085 381.206,201.700 381.213 C 201.315 381.220,200.651 381.490,200.224 381.813 C 199.796 382.136,199.153 382.400,198.793 382.400 C 198.434 382.400,197.717 382.850,197.200 383.400 C 196.683 383.950,195.887 384.404,195.430 384.409 C 194.974 384.414,194.150 384.770,193.600 385.200 C 193.050 385.630,192.296 385.986,191.924 385.991 C 191.552 385.996,191.150 386.158,191.031 386.351 C 190.827 386.679,375.385 387.430,383.400 387.133 L 387.000 387.000 387.092 356.800 C 387.276 296.763,386.645 191.881,386.100 191.700 C 385.792 191.597,385.600 191.904,385.600 192.497 M36.082 194.078 C 35.535 194.625,35.354 307.401,35.900 307.738 C 36.065 307.840,36.200 282.336,36.200 251.062 L 36.200 194.200 71.775 194.098 C 99.955 194.017,107.424 194.100,107.706 194.498 C 107.970 194.871,108.019 194.846,107.897 194.400 C 107.677 193.592,36.885 193.275,36.082 194.078 M83.000 212.395 L 58.200 212.600 58.095 227.575 C 58.037 235.811,58.127 242.687,58.295 242.855 C 58.463 243.023,58.551 236.329,58.491 227.980 L 58.381 212.800 82.967 212.800 C 98.926 212.800,107.640 212.660,107.800 212.400 C 107.936 212.180,107.992 212.043,107.924 212.095 C 107.856 212.148,96.640 212.283,83.000 212.395 M58.097 284.467 C 58.021 302.473,57.890 307.578,57.500 307.735 C 57.108 307.893,57.111 307.944,57.513 307.968 C 58.394 308.023,58.410 307.533,58.300 284.200 L 58.193 261.400 58.097 284.467 M386.557 307.033 C 386.691 307.381,386.800 325.471,386.800 347.233 L 386.800 386.800 346.171 386.800 C 310.057 386.800,305.610 386.733,306.143 386.200 C 306.473 385.870,307.005 385.600,307.325 385.600 C 307.645 385.600,308.001 385.239,308.116 384.798 C 308.256 384.264,308.538 384.078,308.963 384.241 C 309.316 384.377,309.600 384.282,309.600 384.030 C 309.600 383.780,309.915 383.454,310.299 383.307 C 310.683 383.159,312.245 381.774,313.769 380.229 C 315.340 378.636,316.611 377.633,316.704 377.912 C 316.945 378.634,317.600 378.084,317.600 377.159 C 317.600 376.625,317.829 376.403,318.300 376.482 C 318.773 376.562,319.043 376.298,319.132 375.669 C 319.221 375.041,319.455 374.812,319.852 374.965 C 320.232 375.111,321.701 373.919,324.005 371.595 C 325.965 369.618,327.846 368.000,328.185 368.000 C 328.523 368.000,328.800 367.713,328.800 367.363 C 328.800 367.012,329.143 366.635,329.563 366.526 C 329.983 366.416,330.421 365.965,330.536 365.523 C 330.652 365.081,330.928 364.832,331.151 364.969 C 331.953 365.465,364.000 333.687,364.000 332.396 C 364.000 331.984,364.180 331.536,364.400 331.400 C 364.620 331.264,364.800 331.354,364.800 331.600 C 364.800 331.846,364.980 331.936,365.200 331.800 C 365.420 331.664,365.600 331.187,365.600 330.739 C 365.600 330.262,365.931 329.839,366.400 329.716 C 366.840 329.601,367.200 329.268,367.200 328.976 C 367.200 328.684,369.000 326.633,371.200 324.420 C 373.719 321.885,375.200 320.083,375.200 319.554 C 375.200 318.963,375.382 318.784,375.815 318.950 C 376.171 319.087,376.508 318.936,376.615 318.593 C 377.252 316.548,377.220 316.590,377.659 317.211 C 378.002 317.696,378.035 317.675,377.848 317.093 C 377.685 316.589,378.422 315.574,380.410 313.562 C 381.944 312.009,383.200 310.403,383.200 309.993 C 383.200 309.092,383.857 308.595,384.119 309.298 C 384.238 309.615,384.411 309.506,384.590 309.000 C 385.477 306.491,386.107 305.860,386.557 307.033 M68.300 350.702 C 50.095 350.759,35.200 350.939,35.200 351.102 C 35.200 351.266,51.670 351.353,71.800 351.296 L 108.400 351.192 108.400 359.600 L 108.400 368.008 71.800 367.904 C 51.670 367.847,35.200 367.935,35.200 368.100 C 35.200 368.265,51.760 368.400,72.000 368.400 L 108.800 368.400 108.800 359.632 L 108.800 350.864 107.682 350.618 C 107.067 350.483,105.402 350.424,103.982 350.486 C 102.562 350.549,86.505 350.646,68.300 350.702 " stroke="none" fill="#fc9797" fill-rule="evenodd"></path><path id="path4" d="M354.800 13.187 L 344.200 13.400 344.119 14.400 C 344.074 14.950,343.978 17.290,343.904 19.600 C 343.831 21.910,343.653 23.991,343.508 24.225 C 343.364 24.458,343.205 26.483,343.155 28.725 C 343.105 30.966,342.944 32.800,342.798 32.800 C 342.534 32.800,342.468 33.655,342.323 38.900 C 342.282 40.385,342.127 41.600,341.979 41.600 C 341.831 41.600,341.588 42.815,341.439 44.300 C 341.057 48.099,340.938 48.891,340.612 49.800 C 340.372 50.469,340.403 50.501,340.800 50.000 C 341.196 49.500,341.225 49.533,340.973 50.200 C 340.807 50.640,340.681 51.405,340.693 51.900 C 340.705 52.395,340.554 52.800,340.358 52.800 C 340.161 52.800,340.000 53.700,340.000 54.800 C 340.000 55.900,339.839 56.800,339.642 56.800 C 339.446 56.800,339.295 57.205,339.307 57.700 C 339.319 58.195,339.193 58.960,339.027 59.400 C 338.775 60.067,338.804 60.100,339.200 59.600 C 339.596 59.100,339.625 59.133,339.373 59.800 C 339.207 60.240,339.081 61.005,339.093 61.500 C 339.105 61.995,338.978 62.400,338.809 62.400 C 338.518 62.400,338.348 63.278,337.469 69.300 C 337.396 69.795,337.233 70.470,337.105 70.800 C 336.598 72.108,336.059 74.971,336.258 75.293 C 336.374 75.481,336.183 76.071,335.834 76.604 C 335.486 77.136,335.200 78.178,335.200 78.919 C 335.200 79.660,335.065 80.402,334.900 80.567 C 334.611 80.856,334.418 82.018,334.349 83.900 C 334.330 84.395,334.154 84.800,333.958 84.800 C 333.761 84.800,333.600 85.340,333.600 86.000 C 333.600 86.660,333.408 87.200,333.173 87.200 C 332.936 87.200,332.853 87.537,332.987 87.958 C 333.125 88.393,332.966 88.977,332.614 89.329 C 332.276 89.667,331.994 90.631,331.987 91.471 C 331.980 92.312,331.709 93.351,331.385 93.779 C 331.061 94.207,330.899 94.882,331.025 95.279 C 331.151 95.676,331.062 96.000,330.827 96.000 C 330.592 96.000,330.400 96.463,330.400 97.029 C 330.400 97.594,330.130 98.327,329.800 98.657 C 329.470 98.987,329.203 99.469,329.206 99.729 C 329.210 100.005,329.373 99.952,329.600 99.600 C 329.813 99.270,329.991 99.191,329.994 99.424 C 329.997 99.656,329.736 100.196,329.413 100.624 C 329.090 101.051,328.820 101.805,328.813 102.300 C 328.806 102.795,328.622 103.200,328.405 103.200 C 328.187 103.200,328.046 103.515,328.091 103.900 C 328.215 104.960,327.226 108.000,326.758 108.000 C 326.531 108.000,326.449 108.324,326.575 108.721 C 326.701 109.118,326.539 109.793,326.215 110.221 C 325.891 110.649,325.620 111.405,325.613 111.900 C 325.606 112.395,325.408 112.800,325.173 112.800 C 324.938 112.800,324.849 113.124,324.975 113.521 C 325.101 113.918,324.939 114.593,324.615 115.021 C 324.291 115.449,324.020 116.128,324.013 116.529 C 324.006 116.929,323.730 117.527,323.400 117.857 C 323.070 118.187,322.803 118.669,322.806 118.929 C 322.810 119.205,322.973 119.152,323.200 118.800 C 323.427 118.448,323.590 118.395,323.594 118.671 C 323.597 118.931,323.330 119.413,323.000 119.743 C 322.670 120.073,322.394 120.671,322.387 121.071 C 322.380 121.472,322.109 122.151,321.785 122.579 C 321.461 123.007,321.299 123.682,321.425 124.079 C 321.551 124.476,321.462 124.800,321.227 124.800 C 320.992 124.800,320.800 125.216,320.800 125.725 C 320.800 126.233,320.440 127.036,320.000 127.508 C 319.560 127.980,319.200 128.747,319.200 129.212 C 319.200 129.677,318.920 130.337,318.577 130.680 C 318.234 131.023,318.053 131.560,318.173 131.874 C 318.293 132.188,317.944 132.893,317.396 133.440 C 316.848 133.988,316.403 134.653,316.406 134.918 C 316.410 135.215,316.561 135.170,316.800 134.800 C 317.027 134.448,317.190 134.395,317.194 134.671 C 317.197 134.931,316.930 135.413,316.600 135.743 C 316.270 136.073,315.996 136.671,315.991 137.071 C 315.986 137.472,315.630 138.250,315.200 138.800 C 314.770 139.350,314.414 140.123,314.409 140.517 C 314.404 140.911,314.040 141.620,313.600 142.092 C 313.160 142.564,312.800 143.290,312.800 143.704 C 312.800 144.118,312.530 144.727,312.200 145.057 C 311.870 145.387,311.603 145.869,311.606 146.129 C 311.610 146.405,311.773 146.352,312.000 146.000 C 312.239 145.630,312.390 145.585,312.394 145.882 C 312.397 146.147,311.952 146.812,311.404 147.360 C 310.856 147.907,310.505 148.607,310.623 148.915 C 310.741 149.223,310.289 150.062,309.619 150.780 C 308.948 151.497,308.403 152.291,308.406 152.542 C 308.409 152.794,308.587 152.730,308.800 152.400 C 309.027 152.048,309.190 151.995,309.194 152.271 C 309.197 152.531,308.930 153.013,308.600 153.343 C 308.270 153.673,308.000 154.305,308.000 154.748 C 308.000 155.586,307.393 156.229,307.100 155.702 C 307.007 155.536,306.990 155.635,307.062 155.922 C 307.133 156.209,306.744 156.893,306.196 157.440 C 305.648 157.988,305.203 158.653,305.206 158.918 C 305.210 159.215,305.361 159.170,305.600 158.800 C 305.813 158.470,305.991 158.406,305.994 158.658 C 305.997 158.909,305.452 159.703,304.781 160.420 C 304.111 161.138,303.657 161.972,303.773 162.274 C 303.889 162.577,303.448 163.385,302.792 164.071 C 302.136 164.757,301.600 165.659,301.600 166.076 C 301.600 166.493,301.240 167.220,300.800 167.692 C 300.360 168.164,300.000 168.842,300.000 169.197 C 300.000 169.553,299.370 170.531,298.600 171.372 C 297.830 172.213,297.203 173.103,297.206 173.350 C 297.209 173.598,297.387 173.530,297.600 173.200 C 297.813 172.870,297.991 172.802,297.994 173.050 C 297.997 173.297,297.370 174.187,296.600 175.028 C 295.830 175.869,295.200 176.846,295.200 177.200 C 295.200 177.554,294.570 178.531,293.800 179.372 C 293.030 180.213,292.403 181.103,292.406 181.350 C 292.409 181.598,292.587 181.530,292.800 181.200 C 293.013 180.870,293.191 180.802,293.194 181.050 C 293.197 181.297,292.570 182.187,291.800 183.028 C 291.030 183.869,290.400 184.843,290.400 185.194 C 290.400 185.545,289.680 186.628,288.800 187.600 C 287.920 188.572,287.200 189.690,287.200 190.084 C 287.200 190.477,286.480 191.541,285.600 192.448 C 284.720 193.355,284.000 194.411,284.000 194.795 C 284.000 195.178,283.010 196.523,281.800 197.782 C 280.590 199.042,279.603 200.281,279.606 200.536 C 279.610 200.798,279.781 200.738,280.000 200.400 C 280.219 200.062,280.390 200.002,280.394 200.264 C 280.397 200.519,279.410 201.758,278.200 203.018 C 276.990 204.277,276.000 205.616,276.000 205.993 C 276.000 206.369,274.930 207.802,273.623 209.176 C 272.316 210.550,271.186 212.062,271.113 212.537 C 271.041 213.012,270.747 213.351,270.461 213.290 C 270.175 213.230,270.050 213.357,270.184 213.574 C 270.317 213.790,269.161 215.248,267.613 216.814 C 266.066 218.380,264.800 219.917,264.800 220.231 C 264.800 220.544,264.511 220.800,264.157 220.800 C 263.764 220.800,263.600 221.022,263.734 221.373 C 263.874 221.738,261.937 223.994,258.396 227.590 C 254.422 231.625,252.900 233.428,253.057 233.917 C 253.239 234.486,253.206 234.502,252.859 234.011 C 252.506 233.512,252.404 233.542,252.183 234.211 C 251.541 236.160,251.511 236.212,251.319 235.698 C 251.026 234.911,250.400 235.541,250.400 236.624 C 250.400 237.647,249.800 237.958,249.480 237.100 C 249.308 236.639,249.053 237.088,248.577 238.693 C 248.496 238.965,248.153 239.080,247.815 238.950 C 247.356 238.774,247.200 238.986,247.200 239.784 C 247.200 240.672,247.064 240.811,246.400 240.600 C 245.742 240.391,245.600 240.528,245.600 241.373 C 245.600 242.046,245.380 242.400,244.963 242.400 C 244.612 242.400,244.230 242.765,244.113 243.211 C 243.962 243.789,243.685 243.954,243.150 243.784 C 242.546 243.592,242.400 243.751,242.400 244.600 C 242.400 245.472,242.262 245.610,241.600 245.400 C 240.938 245.190,240.800 245.328,240.800 246.200 C 240.800 247.058,240.657 247.209,240.030 247.010 C 239.441 246.823,239.230 246.981,239.130 247.683 C 239.043 248.299,238.771 248.561,238.300 248.482 C 237.786 248.396,237.600 248.635,237.600 249.382 C 237.600 250.439,237.006 250.773,236.680 249.900 C 236.489 249.389,236.458 249.444,235.817 251.389 C 235.603 252.037,235.493 252.075,235.200 251.600 C 234.890 251.099,234.819 251.100,234.660 251.611 C 234.026 253.651,233.952 253.770,233.645 253.274 C 233.429 252.924,231.926 254.148,228.721 257.285 C 222.761 263.118,221.210 264.454,220.735 264.160 C 220.521 264.028,220.247 264.298,220.126 264.760 C 220.006 265.222,219.646 265.600,219.327 265.600 C 219.009 265.600,217.905 266.464,216.874 267.521 C 215.843 268.577,214.685 269.561,214.300 269.708 C 213.915 269.855,213.600 270.263,213.600 270.614 C 213.600 271.047,213.368 271.180,212.885 271.027 C 212.390 270.870,211.496 271.433,209.985 272.854 C 207.208 275.464,205.460 276.800,204.823 276.800 C 204.547 276.800,203.844 277.306,203.260 277.925 C 202.677 278.543,201.885 279.167,201.500 279.312 C 201.115 279.457,200.800 279.851,200.800 280.187 C 200.800 280.892,200.139 281.018,199.919 280.356 C 199.837 280.112,198.811 280.852,197.637 282.001 C 196.000 283.605,195.421 283.964,195.152 283.545 C 194.881 283.125,194.743 283.207,194.553 283.900 C 194.418 284.395,194.040 284.800,193.714 284.800 C 193.388 284.800,192.616 285.341,191.998 286.002 C 191.381 286.663,190.626 287.108,190.321 286.991 C 190.005 286.870,188.932 287.577,187.832 288.631 C 186.648 289.766,185.795 290.315,185.630 290.048 C 185.466 289.783,184.530 290.406,183.229 291.647 C 181.874 292.940,180.995 293.516,180.818 293.230 C 180.634 292.932,180.135 293.155,179.340 293.890 C 177.978 295.151,176.620 296.000,175.966 296.000 C 175.721 296.000,174.985 296.574,174.330 297.275 C 173.402 298.269,173.065 298.428,172.800 298.000 C 172.536 297.573,172.180 297.751,171.200 298.800 C 170.374 299.684,169.842 299.992,169.657 299.692 C 169.468 299.386,168.957 299.625,168.112 300.414 C 167.418 301.063,166.614 301.508,166.325 301.403 C 166.036 301.297,165.082 301.839,164.204 302.606 C 163.327 303.373,162.284 304.000,161.886 304.000 C 161.489 304.000,160.702 304.462,160.138 305.026 C 159.573 305.591,158.852 305.952,158.534 305.830 C 158.216 305.708,157.471 306.058,156.878 306.608 C 156.285 307.158,155.565 307.518,155.278 307.408 C 154.991 307.298,154.296 307.668,153.734 308.230 C 153.172 308.792,152.452 309.152,152.135 309.030 C 151.817 308.908,151.173 309.167,150.703 309.604 C 150.233 310.042,149.433 310.400,148.925 310.400 C 148.416 310.400,148.000 310.580,148.000 310.800 C 148.000 311.020,147.724 311.200,147.387 311.200 C 147.051 311.200,146.667 311.480,146.536 311.823 C 146.404 312.166,146.040 312.348,145.727 312.227 C 145.414 312.107,144.773 312.367,144.303 312.804 C 143.833 313.242,143.033 313.600,142.525 313.600 C 142.016 313.600,141.600 313.792,141.600 314.027 C 141.600 314.266,141.262 314.347,140.834 314.211 C 140.317 314.047,139.720 314.316,138.994 315.042 C 138.163 315.874,137.845 315.996,137.590 315.584 C 137.340 315.179,136.956 315.376,136.000 316.400 C 135.049 317.418,134.659 317.619,134.412 317.220 C 134.155 316.803,133.889 316.872,133.167 317.545 C 132.662 318.015,131.833 318.400,131.325 318.400 C 130.816 318.400,130.400 318.592,130.400 318.827 C 130.400 319.062,130.070 319.149,129.668 319.021 C 129.230 318.883,128.554 319.119,127.991 319.608 C 127.472 320.058,126.802 320.333,126.502 320.218 C 126.202 320.103,125.573 320.367,125.103 320.804 C 124.633 321.242,123.848 321.600,123.358 321.600 C 122.868 321.600,122.375 321.825,122.264 322.100 C 122.103 322.497,121.987 322.495,121.701 322.090 C 121.427 321.703,121.022 321.883,120.023 322.838 C 118.970 323.844,118.630 323.986,118.323 323.548 C 118.025 323.123,117.893 323.113,117.736 323.500 C 117.625 323.775,117.132 324.000,116.642 324.000 C 116.152 324.000,115.338 324.385,114.833 324.855 C 114.077 325.560,113.847 325.613,113.527 325.155 C 113.228 324.727,113.093 324.714,112.936 325.100 C 112.825 325.375,112.332 325.600,111.842 325.600 C 111.352 325.600,110.538 325.985,110.033 326.455 C 109.333 327.107,109.041 327.189,108.800 326.800 C 108.559 326.411,108.267 326.493,107.567 327.145 C 107.062 327.615,106.248 328.000,105.758 328.000 C 105.268 328.000,104.775 328.225,104.664 328.500 C 104.511 328.878,104.348 328.853,104.000 328.400 C 103.652 327.947,103.489 327.922,103.336 328.300 C 103.225 328.575,102.732 328.800,102.242 328.800 C 101.752 328.800,100.938 329.185,100.433 329.655 C 99.677 330.360,99.447 330.413,99.127 329.955 C 98.828 329.527,98.693 329.514,98.536 329.900 C 98.425 330.175,97.909 330.400,97.390 330.400 C 96.872 330.400,96.336 330.580,96.200 330.800 C 96.064 331.020,95.438 331.200,94.810 331.200 C 94.181 331.200,93.575 331.425,93.464 331.700 C 93.311 332.078,93.148 332.053,92.800 331.600 C 92.452 331.147,92.289 331.122,92.136 331.500 C 92.025 331.775,91.509 332.000,90.990 332.000 C 90.472 332.000,89.936 332.180,89.800 332.400 C 89.664 332.620,89.023 332.800,88.376 332.800 C 87.729 332.800,87.200 332.999,87.200 333.243 C 87.200 333.489,86.909 333.574,86.544 333.434 C 86.183 333.295,85.454 333.466,84.924 333.813 C 84.394 334.160,83.250 334.472,82.381 334.507 C 81.511 334.542,80.800 334.673,80.800 334.800 C 80.800 334.927,80.052 335.060,79.139 335.096 C 78.225 335.133,77.289 335.351,77.059 335.581 C 76.828 335.812,76.136 336.000,75.520 336.000 C 74.904 336.000,74.400 336.199,74.400 336.443 C 74.400 336.686,74.158 336.793,73.863 336.679 C 73.567 336.566,72.172 336.743,70.763 337.073 C 69.353 337.402,67.795 337.675,67.300 337.678 C 66.805 337.682,66.400 337.816,66.400 337.976 C 66.400 338.136,65.905 338.267,65.300 338.268 C 63.512 338.271,58.625 339.327,58.300 339.781 C 58.103 340.056,57.863 339.995,57.600 339.600 C 57.348 339.222,57.089 339.149,56.900 339.401 C 56.735 339.622,55.800 339.854,54.822 339.917 C 53.845 339.979,52.844 340.198,52.598 340.402 C 52.352 340.606,51.037 340.817,49.675 340.871 C 48.314 340.924,47.200 341.096,47.200 341.251 C 47.200 341.406,46.538 341.481,45.729 341.417 C 44.919 341.353,43.074 341.548,41.629 341.850 C 40.183 342.153,38.340 342.400,37.533 342.400 C 36.727 342.400,35.975 342.625,35.864 342.900 C 35.724 343.244,35.558 343.267,35.330 342.975 C 35.149 342.742,34.550 342.551,34.000 342.551 C 33.450 342.551,32.865 342.742,32.700 342.975 C 32.500 343.258,32.266 343.200,32.000 342.800 C 31.749 342.424,31.488 342.349,31.300 342.600 C 31.135 342.820,29.479 343.053,27.620 343.118 C 25.761 343.182,24.051 343.384,23.820 343.566 C 23.589 343.747,21.960 343.939,20.200 343.993 C 18.440 344.046,16.190 344.114,15.200 344.145 L 13.400 344.200 13.049 365.079 C 12.856 376.562,12.805 386.237,12.936 386.579 C 13.151 387.138,22.218 387.190,104.287 387.102 C 189.997 387.010,192.067 386.992,139.200 386.802 C 108.290 386.691,83.315 386.471,83.700 386.313 C 84.085 386.154,84.670 386.129,85.000 386.255 C 85.330 386.382,85.600 386.305,85.600 386.085 C 85.600 385.865,86.005 385.680,86.500 385.674 C 88.037 385.655,91.785 384.692,92.100 384.235 C 92.305 383.938,92.536 383.990,92.830 384.400 C 93.155 384.852,93.311 384.876,93.464 384.500 C 93.575 384.225,94.091 384.000,94.610 384.000 C 95.128 384.000,95.664 383.820,95.800 383.600 C 95.936 383.380,96.562 383.200,97.190 383.200 C 97.819 383.200,98.425 382.975,98.536 382.700 C 98.689 382.322,98.852 382.347,99.200 382.800 C 99.548 383.253,99.711 383.278,99.864 382.900 C 99.975 382.625,100.581 382.400,101.210 382.400 C 101.838 382.400,102.464 382.220,102.600 382.000 C 102.736 381.780,103.272 381.600,103.790 381.600 C 104.309 381.600,104.825 381.375,104.936 381.100 C 105.089 380.724,105.245 380.748,105.570 381.200 C 105.885 381.640,106.081 381.675,106.304 381.331 C 106.716 380.697,109.957 379.609,110.647 379.873 C 110.951 379.990,111.200 379.886,111.200 379.643 C 111.200 379.399,111.605 379.194,112.100 379.187 C 112.595 379.180,113.351 378.909,113.779 378.585 C 114.207 378.261,114.882 378.099,115.279 378.225 C 115.685 378.354,116.000 378.255,116.000 378.000 C 116.000 377.745,116.315 377.646,116.721 377.775 C 117.118 377.901,117.793 377.739,118.221 377.415 C 118.649 377.091,119.405 376.820,119.900 376.813 C 120.395 376.806,120.800 376.608,120.800 376.373 C 120.800 376.138,121.130 376.051,121.532 376.179 C 121.968 376.317,122.643 376.083,123.200 375.600 C 123.757 375.117,124.432 374.883,124.868 375.021 C 125.284 375.154,125.600 375.058,125.600 374.800 C 125.600 374.545,125.915 374.446,126.321 374.575 C 126.718 374.701,127.393 374.539,127.821 374.215 C 128.249 373.891,129.005 373.620,129.500 373.613 C 129.995 373.606,130.400 373.408,130.400 373.173 C 130.400 372.938,130.730 372.851,131.132 372.979 C 131.568 373.117,132.243 372.883,132.800 372.400 C 133.357 371.917,134.032 371.683,134.468 371.821 C 134.870 371.949,135.200 371.862,135.200 371.627 C 135.200 371.392,135.605 371.194,136.100 371.187 C 136.595 371.180,137.351 370.909,137.779 370.585 C 138.207 370.261,138.882 370.099,139.279 370.225 C 139.676 370.351,140.000 370.262,140.000 370.027 C 140.000 369.792,140.416 369.600,140.925 369.600 C 141.433 369.600,142.262 369.215,142.767 368.745 C 143.459 368.100,143.761 368.014,143.996 368.393 C 144.223 368.760,144.662 368.557,145.623 367.638 C 146.515 366.785,147.033 366.530,147.228 366.845 C 147.429 367.171,147.789 367.055,148.433 366.455 C 148.938 365.985,149.767 365.600,150.275 365.600 C 150.784 365.600,151.200 365.420,151.200 365.200 C 151.200 364.980,151.605 364.794,152.100 364.787 C 152.595 364.780,153.351 364.509,153.779 364.185 C 154.207 363.861,154.882 363.699,155.279 363.825 C 155.676 363.951,156.000 363.862,156.000 363.627 C 156.000 363.392,156.234 363.200,156.520 363.200 C 157.256 363.200,159.193 362.259,159.197 361.900 C 159.199 361.735,159.616 361.600,160.125 361.600 C 160.633 361.600,161.436 361.240,161.908 360.800 C 162.380 360.360,163.100 360.000,163.508 360.000 C 163.916 360.000,164.662 359.615,165.167 359.145 C 165.889 358.472,166.155 358.403,166.412 358.820 C 166.659 359.219,167.049 359.018,168.000 358.000 C 168.941 356.993,169.342 356.783,169.584 357.173 C 169.827 357.568,170.230 357.388,171.223 356.438 C 172.101 355.599,172.635 355.332,172.823 355.638 C 173.012 355.943,173.546 355.677,174.423 354.838 C 175.322 353.979,175.832 353.728,176.030 354.048 C 176.229 354.371,176.658 354.179,177.404 353.433 C 178.027 352.810,178.741 352.445,179.082 352.576 C 179.437 352.712,180.154 352.292,180.868 351.527 C 181.798 350.532,182.135 350.372,182.400 350.800 C 182.664 351.227,183.020 351.049,184.000 350.000 C 184.980 348.951,185.336 348.773,185.600 349.200 C 185.865 349.628,186.202 349.468,187.132 348.473 C 187.788 347.771,188.567 347.289,188.862 347.402 C 189.158 347.516,189.885 347.158,190.478 346.608 C 191.071 346.058,191.813 345.707,192.126 345.827 C 192.440 345.947,192.804 345.766,192.936 345.423 C 193.067 345.080,193.451 344.800,193.787 344.800 C 194.124 344.800,194.400 344.620,194.400 344.400 C 194.400 344.180,194.672 344.000,195.005 344.000 C 195.811 344.000,197.076 343.245,198.540 341.890 C 199.397 341.097,199.826 340.918,200.040 341.264 C 200.249 341.604,200.697 341.366,201.530 340.475 C 202.185 339.774,202.921 339.200,203.166 339.200 C 203.820 339.200,205.178 338.351,206.540 337.090 C 207.397 336.297,207.826 336.118,208.040 336.464 C 208.249 336.804,208.697 336.566,209.530 335.675 C 210.185 334.974,210.988 334.400,211.314 334.400 C 211.640 334.400,212.018 333.995,212.153 333.500 C 212.342 332.811,212.482 332.727,212.749 333.142 C 213.018 333.558,213.548 333.253,215.032 331.831 C 216.132 330.777,217.205 330.070,217.521 330.191 C 217.826 330.308,218.581 329.863,219.198 329.202 C 219.816 328.541,220.521 328.000,220.766 328.000 C 221.528 328.000,222.877 327.068,224.712 325.272 C 225.785 324.222,226.708 323.633,227.066 323.770 C 227.434 323.911,228.389 323.243,229.602 321.998 C 230.672 320.899,231.742 320.000,231.979 320.000 C 232.735 320.000,234.075 319.055,236.151 317.056 C 237.262 315.987,238.238 315.313,238.320 315.559 C 238.551 316.254,239.200 315.647,239.200 314.734 C 239.200 314.154,239.383 313.985,239.828 314.155 C 240.244 314.315,241.111 313.723,242.402 312.398 C 243.472 311.299,244.609 310.400,244.927 310.400 C 245.246 310.400,245.618 309.995,245.753 309.500 C 245.930 308.857,246.093 308.744,246.326 309.104 C 246.558 309.463,247.485 308.799,249.549 306.795 C 251.143 305.248,252.614 304.085,252.819 304.212 C 253.024 304.338,253.101 304.207,252.991 303.920 C 252.881 303.633,253.153 303.172,253.595 302.896 C 254.118 302.569,254.400 302.543,254.400 302.820 C 254.400 303.055,254.580 303.136,254.800 303.000 C 255.020 302.864,255.200 302.384,255.200 301.934 C 255.200 301.359,255.385 301.185,255.818 301.352 C 256.241 301.514,257.819 300.199,260.806 297.194 C 263.208 294.778,265.429 292.800,265.741 292.800 C 266.052 292.800,266.401 292.440,266.516 292.000 C 266.631 291.560,266.991 291.200,267.316 291.200 C 267.641 291.200,268.018 290.795,268.153 290.300 C 268.324 289.676,268.497 289.550,268.717 289.889 C 269.153 290.562,287.200 272.746,287.200 271.642 C 287.200 271.205,287.380 270.736,287.600 270.600 C 287.820 270.464,288.000 270.577,288.000 270.851 C 288.000 271.125,288.540 270.832,289.200 270.200 C 289.860 269.568,290.400 268.735,290.400 268.349 C 290.400 267.963,290.580 267.536,290.800 267.400 C 291.020 267.264,291.200 267.354,291.200 267.600 C 291.200 267.846,291.380 267.936,291.600 267.800 C 291.820 267.664,292.000 267.213,292.000 266.799 C 292.000 266.379,293.772 264.262,296.000 262.020 C 298.470 259.534,300.000 257.679,300.000 257.170 C 300.000 256.528,300.177 256.402,300.800 256.600 C 301.455 256.808,301.600 256.672,301.600 255.851 C 301.600 254.855,302.177 254.117,302.500 254.698 C 302.593 254.864,302.605 254.752,302.527 254.449 C 302.326 253.663,303.686 252.719,304.135 253.334 C 304.350 253.629,304.392 253.540,304.248 253.093 C 304.085 252.589,304.822 251.574,306.810 249.562 C 308.344 248.009,309.600 246.408,309.600 246.004 C 309.600 245.600,310.680 244.173,312.000 242.832 C 313.320 241.492,314.400 240.047,314.400 239.621 C 314.400 238.808,315.012 238.180,315.300 238.698 C 315.393 238.864,315.413 238.772,315.344 238.492 C 315.275 238.213,316.115 237.070,317.210 235.952 C 318.304 234.834,319.200 233.588,319.200 233.183 C 319.200 232.778,319.380 232.336,319.600 232.200 C 319.820 232.064,320.000 232.154,320.000 232.400 C 320.000 232.646,320.180 232.736,320.400 232.600 C 320.620 232.464,320.800 231.986,320.800 231.537 C 320.800 231.088,321.354 230.204,322.030 229.572 C 322.707 228.939,323.144 228.233,323.001 228.001 C 322.858 227.770,322.975 227.630,323.261 227.690 C 323.547 227.751,323.839 227.423,323.910 226.962 C 323.981 226.502,324.750 225.339,325.620 224.378 C 326.489 223.418,327.200 222.332,327.200 221.964 C 327.200 221.597,327.920 220.555,328.800 219.648 C 329.680 218.741,330.400 217.677,330.400 217.284 C 330.400 216.890,331.120 215.772,332.000 214.800 C 332.880 213.828,333.600 212.744,333.600 212.391 C 333.600 212.039,333.960 211.364,334.400 210.892 C 334.840 210.420,335.200 209.677,335.200 209.240 C 335.200 208.412,335.809 207.774,336.100 208.298 C 336.193 208.464,336.212 208.370,336.142 208.088 C 336.073 207.806,336.552 207.015,337.208 206.329 C 337.864 205.643,338.400 204.783,338.400 204.419 C 338.400 204.054,339.030 203.069,339.800 202.228 C 340.570 201.387,341.197 200.497,341.194 200.250 C 341.191 200.002,341.013 200.070,340.800 200.400 C 340.587 200.730,340.409 200.798,340.406 200.550 C 340.403 200.303,341.030 199.413,341.800 198.572 C 342.570 197.731,343.200 196.753,343.200 196.397 C 343.200 196.042,343.560 195.364,344.000 194.892 C 344.440 194.420,344.800 193.677,344.800 193.240 C 344.800 192.287,345.439 191.793,345.762 192.498 C 345.889 192.774,345.905 192.634,345.797 192.188 C 345.673 191.671,345.893 191.166,346.401 190.799 C 346.840 190.483,347.200 189.805,347.200 189.294 C 347.200 188.782,347.650 187.914,348.200 187.364 C 348.750 186.814,349.197 186.147,349.194 185.882 C 349.190 185.585,349.039 185.630,348.800 186.000 C 348.587 186.330,348.409 186.398,348.406 186.150 C 348.403 185.903,349.030 185.013,349.800 184.172 C 350.570 183.331,351.200 182.269,351.200 181.810 C 351.200 181.352,351.560 180.717,352.000 180.400 C 352.440 180.083,352.800 179.406,352.800 178.895 C 352.800 178.384,353.160 177.580,353.600 177.108 C 354.040 176.636,354.400 175.916,354.400 175.508 C 354.400 175.100,354.760 174.380,355.200 173.908 C 355.640 173.436,356.000 172.716,356.000 172.308 C 356.000 171.900,356.360 171.180,356.800 170.708 C 357.240 170.236,357.600 169.510,357.600 169.096 C 357.600 168.682,357.870 168.073,358.200 167.743 C 358.530 167.413,358.797 166.931,358.794 166.671 C 358.790 166.395,358.627 166.448,358.400 166.800 C 358.161 167.170,358.010 167.215,358.006 166.918 C 358.003 166.653,358.450 165.986,359.000 165.436 C 359.550 164.886,360.000 163.978,360.000 163.418 C 360.000 162.858,360.180 162.400,360.400 162.400 C 360.620 162.400,360.800 161.984,360.800 161.475 C 360.800 160.967,361.160 160.164,361.600 159.692 C 362.040 159.220,362.406 158.511,362.413 158.117 C 362.420 157.723,362.690 157.051,363.013 156.624 C 363.336 156.196,363.600 155.549,363.600 155.185 C 363.600 154.820,363.966 154.100,364.413 153.585 C 364.861 153.069,365.128 152.390,365.008 152.075 C 364.887 151.761,365.167 151.175,365.631 150.773 C 366.094 150.371,366.351 149.845,366.202 149.604 C 366.053 149.362,366.217 148.729,366.566 148.196 C 366.914 147.664,367.200 146.939,367.200 146.586 C 367.200 146.232,367.470 145.673,367.800 145.343 C 368.130 145.013,368.397 144.531,368.394 144.271 C 368.390 143.995,368.227 144.048,368.000 144.400 C 367.787 144.730,367.609 144.803,367.606 144.561 C 367.603 144.320,367.960 143.707,368.400 143.200 C 368.840 142.693,369.200 141.980,369.200 141.615 C 369.200 141.251,369.464 140.604,369.787 140.176 C 370.110 139.749,370.380 138.995,370.387 138.500 C 370.394 138.005,370.592 137.600,370.827 137.600 C 371.064 137.600,371.147 137.263,371.013 136.842 C 370.875 136.407,371.034 135.823,371.386 135.471 C 371.724 135.133,372.000 134.471,372.000 134.000 C 372.000 133.529,372.276 132.867,372.614 132.529 C 372.966 132.177,373.125 131.593,372.987 131.158 C 372.853 130.737,372.936 130.400,373.173 130.400 C 373.408 130.400,373.600 129.937,373.600 129.371 C 373.600 128.806,373.876 128.067,374.214 127.729 C 374.566 127.377,374.725 126.793,374.587 126.358 C 374.453 125.937,374.536 125.600,374.773 125.600 C 375.008 125.600,375.206 125.195,375.213 124.700 C 375.220 124.205,375.491 123.449,375.815 123.021 C 376.139 122.593,376.301 121.918,376.175 121.521 C 376.049 121.124,376.138 120.800,376.373 120.800 C 376.608 120.800,376.800 120.337,376.800 119.771 C 376.800 119.206,377.076 118.467,377.414 118.129 C 377.766 117.777,377.925 117.193,377.787 116.758 C 377.653 116.337,377.736 116.000,377.973 116.000 C 378.208 116.000,378.400 115.460,378.400 114.800 C 378.400 114.140,378.578 113.600,378.795 113.600 C 379.013 113.600,379.154 113.285,379.109 112.900 C 378.995 111.923,379.958 108.800,380.373 108.800 C 380.561 108.800,380.734 108.350,380.758 107.800 C 380.781 107.250,380.819 106.350,380.842 105.800 C 380.866 105.250,381.046 104.800,381.242 104.800 C 381.439 104.800,381.600 104.260,381.600 103.600 C 381.600 102.940,381.761 102.400,381.958 102.400 C 382.154 102.400,382.334 101.950,382.358 101.400 C 382.381 100.850,382.419 99.950,382.442 99.400 C 382.466 98.850,382.646 98.400,382.842 98.400 C 383.039 98.400,383.200 97.860,383.200 97.200 C 383.200 96.540,383.361 96.000,383.558 96.000 C 383.754 96.000,383.934 95.550,383.958 95.000 C 383.981 94.450,384.019 93.550,384.042 93.000 C 384.066 92.450,384.246 92.000,384.442 92.000 C 384.639 92.000,384.800 91.561,384.800 91.024 C 384.800 90.487,384.987 89.931,385.216 89.790 C 385.445 89.648,385.529 89.207,385.403 88.808 C 385.272 88.395,385.464 87.793,385.851 87.406 C 386.415 86.842,386.436 86.669,385.976 86.385 C 385.672 86.197,385.553 85.914,385.712 85.755 C 386.514 84.952,386.615 90.085,386.803 141.533 C 386.967 186.148,387.006 179.000,387.003 105.000 L 387.000 13.000 376.200 12.987 C 370.260 12.980,360.630 13.070,354.800 13.187 M36.262 35.500 C 36.093 35.772,53.732 35.768,75.400 35.491 C 80.020 35.432,73.146 35.342,60.124 35.292 C 47.102 35.241,36.364 35.335,36.262 35.500 M177.862 35.500 C 177.693 35.772,194.014 35.768,215.200 35.490 C 219.710 35.431,213.196 35.342,200.724 35.291 C 188.252 35.241,177.964 35.335,177.862 35.500 M85.300 35.876 C 85.685 35.976,86.315 35.976,86.700 35.876 C 87.085 35.775,86.770 35.693,86.000 35.693 C 85.230 35.693,84.915 35.775,85.300 35.876 M225.305 35.887 C 225.914 35.979,226.814 35.977,227.305 35.882 C 227.797 35.787,227.300 35.711,226.200 35.714 C 225.100 35.717,224.697 35.795,225.305 35.887 M109.183 45.700 C 110.164 46.745,111.019 47.600,111.083 47.600 C 111.384 47.600,111.066 47.241,109.300 45.583 L 107.400 43.800 109.183 45.700 M58.983 54.100 C 58.878 54.375,58.838 62.340,58.896 71.800 L 59.000 89.000 69.400 89.010 L 79.800 89.020 69.500 88.903 L 59.200 88.787 59.200 71.400 L 59.200 54.013 70.300 53.900 L 81.400 53.787 70.287 53.693 C 61.696 53.621,59.131 53.713,58.983 54.100 M200.667 55.067 C 200.296 55.437,200.329 129.909,200.700 130.138 C 200.865 130.240,201.000 113.331,201.000 92.562 C 201.000 71.793,200.985 54.800,200.967 54.800 C 200.948 54.800,200.813 54.920,200.667 55.067 M219.300 55.087 C 219.905 55.178,220.895 55.178,221.500 55.087 C 222.105 54.995,221.610 54.920,220.400 54.920 C 219.190 54.920,218.695 54.995,219.300 55.087 M118.493 66.400 C 118.493 67.170,118.575 67.485,118.676 67.100 C 118.776 66.715,118.776 66.085,118.676 65.700 C 118.575 65.315,118.493 65.630,118.493 66.400 M95.742 71.400 C 95.741 73.380,95.808 74.240,95.892 73.312 C 95.976 72.384,95.977 70.764,95.895 69.712 C 95.812 68.660,95.743 69.420,95.742 71.400 M118.937 71.400 C 118.939 73.160,119.009 73.830,119.093 72.889 C 119.178 71.949,119.177 70.509,119.091 69.689 C 119.005 68.870,118.936 69.640,118.937 71.400 M118.493 76.400 C 118.493 77.170,118.575 77.485,118.676 77.100 C 118.776 76.715,118.776 76.085,118.676 75.700 C 118.575 75.315,118.493 75.630,118.493 76.400 M275.293 82.400 C 275.293 83.170,275.375 83.485,275.476 83.100 C 275.576 82.715,275.576 82.085,275.476 81.700 C 275.375 81.315,275.293 81.630,275.293 82.400 M275.701 85.800 C 275.705 86.680,275.787 86.993,275.883 86.495 C 275.979 85.998,275.975 85.278,275.875 84.895 C 275.775 84.513,275.696 84.920,275.701 85.800 M252.155 92.600 C 252.156 95.460,252.220 96.578,252.297 95.083 C 252.374 93.589,252.374 91.249,252.296 89.883 C 252.218 88.518,252.155 89.740,252.155 92.600 M109.178 97.100 L 107.800 98.600 109.300 97.222 C 110.125 96.463,110.800 95.788,110.800 95.722 C 110.800 95.416,110.462 95.704,109.178 97.100 M275.701 99.400 C 275.705 100.280,275.787 100.593,275.883 100.095 C 275.979 99.598,275.975 98.878,275.875 98.495 C 275.775 98.113,275.696 98.520,275.701 99.400 M275.309 103.200 C 275.309 104.190,275.387 104.595,275.482 104.100 C 275.578 103.605,275.578 102.795,275.482 102.300 C 275.387 101.805,275.309 102.210,275.309 103.200 M58.983 107.700 C 58.878 107.975,58.840 117.560,58.900 129.000 L 59.007 149.800 59.104 128.706 L 59.200 107.612 70.500 107.500 L 81.800 107.387 70.487 107.294 C 61.736 107.221,59.132 107.313,58.983 107.700 M273.800 111.600 C 273.648 112.291,273.607 112.941,273.709 113.042 C 273.811 113.144,274.009 112.653,274.150 111.950 C 274.483 110.283,274.160 109.960,273.800 111.600 M270.065 122.617 C 269.395 124.088,269.523 124.402,270.247 123.065 C 270.586 122.440,270.788 121.854,270.696 121.763 C 270.605 121.671,270.321 122.056,270.065 122.617 M238.697 125.166 C 237.053 126.219,236.825 126.591,238.275 125.854 C 238.976 125.497,239.661 125.024,239.798 124.803 C 240.119 124.284,240.023 124.315,238.697 125.166 M222.500 130.276 C 222.885 130.376,223.515 130.376,223.900 130.276 C 224.285 130.175,223.970 130.093,223.200 130.093 C 222.430 130.093,222.115 130.175,222.500 130.276 M261.381 135.300 L 259.800 137.000 261.500 135.419 C 263.081 133.948,263.384 133.600,263.081 133.600 C 263.016 133.600,262.251 134.365,261.381 135.300 M42.124 149.899 C 45.162 149.967,50.022 149.967,52.924 149.899 C 55.826 149.831,53.340 149.775,47.400 149.775 C 41.460 149.775,39.086 149.831,42.124 149.899 M189.500 149.900 C 195.715 149.962,205.885 149.962,212.100 149.900 C 218.315 149.838,213.230 149.787,200.800 149.787 C 188.370 149.787,183.285 149.838,189.500 149.900 M35.385 194.100 C 35.280 194.375,35.241 219.530,35.297 250.000 L 35.400 305.400 35.600 249.500 C 35.710 218.755,35.749 193.600,35.687 193.600 C 35.626 193.600,35.489 193.825,35.385 194.100 M108.172 203.200 C 108.172 208.370,108.229 210.485,108.299 207.900 C 108.368 205.315,108.368 201.085,108.299 198.500 C 108.229 195.915,108.172 198.030,108.172 203.200 M70.729 213.100 C 77.620 213.161,88.780 213.161,95.529 213.100 C 102.278 213.038,96.640 212.988,83.000 212.988 C 69.360 212.988,63.838 213.038,70.729 213.100 M58.743 242.503 C 58.910 242.670,68.936 242.760,81.023 242.703 L 103.000 242.600 80.720 242.400 C 68.466 242.290,58.576 242.337,58.743 242.503 M103.599 252.481 C 103.490 257.475,103.539 261.422,103.708 261.253 C 103.877 261.083,103.967 256.997,103.907 252.172 L 103.799 243.400 103.599 252.481 M69.528 261.900 C 75.759 261.962,85.839 261.962,91.928 261.900 C 98.018 261.838,92.920 261.787,80.600 261.787 C 68.280 261.787,63.298 261.838,69.528 261.900 M58.494 296.112 L 58.400 308.024 46.838 307.912 C 40.479 307.850,35.359 307.935,35.461 308.100 C 35.808 308.660,58.402 308.461,58.619 307.895 C 58.725 307.617,58.762 302.172,58.700 295.795 L 58.587 284.200 58.494 296.112 M108.957 351.033 C 109.416 352.228,109.229 368.211,108.751 368.689 C 108.120 369.320,35.530 368.879,35.106 368.242 C 34.754 367.712,34.696 351.938,35.043 351.033 C 35.415 350.064,108.585 350.064,108.957 351.033 " stroke="none" fill="#fc5858" fill-rule="evenodd"></path><path id="path5" d="M0.000 200.000 L 0.000 400.000 200.000 400.000 L 400.000 400.000 400.000 200.000 L 400.000 0.000 200.000 0.000 L 0.000 0.000 0.000 200.000 M387.200 200.000 L 387.200 387.200 200.000 387.200 L 12.800 387.200 12.800 200.000 L 12.800 12.800 200.000 12.800 L 387.200 12.800 387.200 200.000 " stroke="none" fill="#040404" fill-rule="evenodd"></path></g></svg>